<?xml version="1.0" encoding="utf-8"?>
<!DOCTYPE svg PUBLIC "-//W3C//DTD SVG 1.1//EN" "http://www.w3.org/Graphics/SVG/1.1/DTD/svg11.dtd">
<svg version="1.1" id="Layer_1" xmlns="http://www.w3.org/2000/svg" xmlns:xlink="http://www.w3.org/1999/xlink" x="0px" y="0px"
	 viewBox="0 0 256 256" enable-background="new 0 0 256 256" xml:space="preserve">
<filter  id="Drop-Shadow" filterUnits="objectBoundingBox">
	<feGaussianBlur  in="SourceAlpha" result="blur" stdDeviation="1.33"></feGaussianBlur>
	<feOffset  dx="0" dy="1.33" in="blur" result="offsetBlurredAlpha"></feOffset>
	<feMerge>
		<feMergeNode  in="offsetBlurredAlpha"></feMergeNode>
		<feMergeNode  in="SourceGraphic"></feMergeNode>
	</feMerge>
</filter>
<g>
	<g>
		
			<linearGradient id="SVGID_1_" gradientUnits="userSpaceOnUse" x1="395.1699" y1="640.7607" x2="540.4203" y2="786.0111" gradientTransform="matrix(1 0 0 1 -339.1992 -584.8008)">
			<stop  offset="0" style="stop-color:#2F2965"/>
			<stop  offset="1" style="stop-color:#2C2B53"/>
		</linearGradient>
		<rect x="55.93" y="56" opacity="0.95" fill="url(#SVGID_1_)" enable-background="new    " width="145.33" height="145.17"/>
		<g filter="url(#Drop-Shadow)">
			
				<linearGradient id="SVGID_2_" gradientUnits="userSpaceOnUse" x1="387.7334" y1="634.833" x2="547.5049" y2="790.9277" gradientTransform="matrix(1 0 0 1 -339.1992 -584.8008)">
				<stop  offset="0" style="stop-color:#D199FE"/>
				<stop  offset="1" style="stop-color:#C179FF"/>
			</linearGradient>
			<path fill="url(#SVGID_2_)" d="M49.66,48.88v158.4h157.52V48.88H49.66z M194.66,194.73H62.52V61.77h132.14V194.73z"/>
		</g>
		<g>
			<g opacity="0.1">
				<path d="M92.49,142.73l-5.72,19.4H74.23l21.32-68.47h15.5l21.62,68.47h-13.03l-6.02-19.4H92.49z M111.54,133.28l-5.23-16.86
					c-1.28-4.17-2.37-8.84-3.36-12.8h-0.2c-0.99,3.96-1.97,8.74-3.16,12.8l-5.13,16.86H111.54z"/>
			</g>
			<g>
				
					<linearGradient id="SVGID_3_" gradientUnits="userSpaceOnUse" x1="413.9092" y1="711.3652" x2="519.6908" y2="711.3652" gradientTransform="matrix(1 0 0 1 -339.1992 -584.8008)">
					<stop  offset="0" style="stop-color:#D199FE"/>
					<stop  offset="1" style="stop-color:#C179FF"/>
				</linearGradient>
				<path fill="url(#SVGID_3_)" d="M92.49,141.4l-5.72,19.4H74.23l21.32-68.47h15.5l21.62,68.47h-13.03l-6.02-19.4H92.49z
					 M111.54,131.96l-5.23-16.86c-1.28-4.17-2.37-8.84-3.36-12.8h-0.2c-0.99,3.96-1.97,8.74-3.16,12.8l-5.13,16.86H111.54z"/>
			</g>
		</g>
		<g>
			<g opacity="0.1">
				<path d="M148.75,140.9c0.29,8.94,7.11,12.8,14.8,12.8c5.63,0,9.67-0.81,13.32-2.23l1.78,8.64c-4.15,1.73-9.87,3.15-16.78,3.15
					c-15.59,0-24.77-9.96-24.77-25.09c0-13.71,8.09-26.62,23.49-26.62c15.69,0,20.73,13.21,20.73,24.08c0,2.33-0.2,4.16-0.4,5.28
					h-32.17V140.9z M169.87,132.16c0.1-4.57-1.88-12.09-9.97-12.09c-7.5,0-10.66,7.01-11.15,12.09H169.87z"/>
			</g>
			<g>
				
					<linearGradient id="SVGID_4_" gradientUnits="userSpaceOnUse" x1="413.9131" y1="720.875" x2="519.6918" y2="720.875" gradientTransform="matrix(1 0 0 1 -339.1992 -584.8008)">
					<stop  offset="0" style="stop-color:#D199FE"/>
					<stop  offset="1" style="stop-color:#C179FF"/>
				</linearGradient>
				<path fill="url(#SVGID_4_)" d="M148.75,139.57c0.29,8.94,7.11,12.8,14.8,12.8c5.63,0,9.67-0.81,13.32-2.23l1.78,8.64
					c-4.15,1.73-9.87,3.15-16.78,3.15c-15.59,0-24.77-9.96-24.77-25.09c0-13.71,8.09-26.62,23.49-26.62
					c15.69,0,20.73,13.21,20.73,24.08c0,2.33-0.2,4.16-0.4,5.28h-32.17V139.57z M169.87,130.84c0.1-4.57-1.88-12.09-9.97-12.09
					c-7.5,0-10.66,7.01-11.15,12.09H169.87z"/>
			</g>
		</g>
	</g>
	<g>
		<path fill="#C179FF" d="M52.72,225.72l-1.22,4.15h-2.68l4.56-14.63h3.31l4.62,14.63h-2.8l-1.29-4.15H52.72z M56.79,223.7
			l-1.12-3.61c-0.27-0.89-0.51-1.89-0.72-2.74h-0.04c-0.21,0.85-0.44,1.87-0.68,2.74l-1.1,3.61H56.79z"/>
		<path fill="#C179FF" d="M63.26,229.87v-8.58h-1.39v-2h1.39v-0.46c0-1.37,0.36-2.74,1.25-3.6c0.76-0.74,1.77-1.02,2.68-1.02
			c0.7,0,1.24,0.13,1.65,0.26l-0.17,2.06c-0.29-0.11-0.63-0.2-1.12-0.2c-1.29,0-1.71,1.11-1.71,2.41v0.55h2.24v2h-2.21v8.58H63.26z"
			/>
		<path fill="#C179FF" d="M72.94,216.58v2.71h2.47v2h-2.47v4.67c0,1.3,0.34,1.95,1.33,1.95c0.46,0,0.72-0.02,1.01-0.11l0.04,2.02
			c-0.38,0.15-1.08,0.28-1.88,0.28c-0.97,0-1.75-0.33-2.24-0.87c-0.57-0.61-0.82-1.58-0.82-2.97v-4.97h-1.46v-2h1.46v-1.98
			L72.94,216.58z"/>
		<path fill="#C179FF" d="M79.08,225.33c0.06,1.91,1.5,2.74,3.16,2.74c1.2,0,2.05-0.2,2.85-0.48l0.38,1.82
			c-0.88,0.39-2.11,0.67-3.59,0.67c-3.33,0-5.29-2.11-5.29-5.34c0-2.93,1.73-5.69,5.02-5.69c3.33,0,4.43,2.82,4.43,5.15
			c0,0.5-0.04,0.89-0.08,1.13H79.08L79.08,225.33z M83.59,223.46c0.02-0.98-0.4-2.58-2.13-2.58c-1.6,0-2.28,1.5-2.38,2.58H83.59z"/>
		<path fill="#C179FF" d="M88.13,222.7c0-1.43-0.02-2.48-0.08-3.41h2.24l0.11,2h0.06c0.51-1.48,1.71-2.24,2.83-2.24
			c0.25,0,0.4,0.02,0.61,0.07v2.5c-0.23-0.04-0.46-0.07-0.78-0.07c-1.22,0-2.09,0.8-2.32,2.02c-0.04,0.24-0.06,0.52-0.06,0.8v5.49
			h-2.59v-7.16H88.13z"/>
		<path fill="#C179FF" d="M108.06,223.38h-5.36v4.3h5.99v2.19h-8.59v-14.63h8.27v2.19h-5.67v3.78h5.36V223.38z"/>
		<path fill="#C179FF" d="M117.42,229.87v-8.58h-3.73v8.58h-2.59v-8.58h-1.39v-2h1.39v-0.22c0-1.37,0.34-2.63,1.16-3.5
			c0.63-0.67,1.58-1.09,2.89-1.09c0.55,0,1.1,0.15,1.41,0.3l-0.42,2c-0.25-0.13-0.59-0.22-0.95-0.22c-1.18,0-1.52,1.02-1.52,2.35
			v0.38h3.76v-0.46c0-1.37,0.36-2.74,1.24-3.6c0.76-0.74,1.79-1.02,2.7-1.02c0.67,0,1.25,0.13,1.65,0.26l-0.19,2.06
			c-0.27-0.11-0.61-0.2-1.1-0.2c-1.29,0-1.73,1.11-1.73,2.41v0.55h2.26v2h-2.24v8.58H117.42z"/>
		<path fill="#C179FF" d="M125.48,225.33c0.06,1.91,1.5,2.74,3.16,2.74c1.2,0,2.05-0.2,2.85-0.48l0.38,1.82
			c-0.88,0.39-2.11,0.67-3.59,0.67c-3.33,0-5.29-2.11-5.29-5.34c0-2.93,1.73-5.69,5.02-5.69c3.33,0,4.43,2.82,4.43,5.15
			c0,0.5-0.04,0.89-0.08,1.13H125.48L125.48,225.33z M129.99,223.46c0.02-0.98-0.4-2.58-2.13-2.58c-1.6,0-2.28,1.5-2.38,2.58H129.99
			z"/>
		<path fill="#C179FF" d="M142.08,229.54c-0.55,0.26-1.63,0.54-2.91,0.54c-3.21,0-5.3-2.13-5.3-5.41c0-3.17,2.11-5.62,5.72-5.62
			c0.95,0,1.92,0.22,2.51,0.48l-0.46,2.02c-0.42-0.22-1.03-0.41-1.96-0.41c-1.98,0-3.16,1.5-3.14,3.43c0,2.17,1.37,3.41,3.14,3.41
			c0.89,0,1.54-0.2,2.05-0.41L142.08,229.54z"/>
		<path fill="#C179FF" d="M147.29,216.58v2.71h2.47v2h-2.47v4.67c0,1.3,0.34,1.95,1.33,1.95c0.46,0,0.72-0.02,1.01-0.11l0.04,2.02
			c-0.38,0.15-1.08,0.28-1.88,0.28c-0.97,0-1.75-0.33-2.24-0.87c-0.57-0.61-0.82-1.58-0.82-2.97v-4.97h-1.46v-2h1.46v-1.98
			L147.29,216.58z"/>
		<path fill="#C179FF" d="M151.61,227.39c0.57,0.37,1.69,0.78,2.62,0.78c1.14,0,1.65-0.5,1.65-1.19c0-0.72-0.42-1.06-1.69-1.54
			c-2-0.69-2.83-1.82-2.83-3.08c0-1.87,1.5-3.3,3.88-3.3c1.14,0,2.13,0.28,2.74,0.63l-0.53,1.87c-0.42-0.26-1.27-0.61-2.17-0.61
			c-0.93,0-1.43,0.48-1.43,1.13c0,0.67,0.49,0.98,1.79,1.48c1.88,0.67,2.72,1.65,2.74,3.21c0,1.93-1.46,3.32-4.18,3.32
			c-1.24,0-2.36-0.3-3.12-0.74L151.61,227.39z"/>
	</g>
</g>
</svg>
