<?xml version="1.0" encoding="utf-8"?>
<!DOCTYPE svg PUBLIC "-//W3C//DTD SVG 1.1//EN" "http://www.w3.org/Graphics/SVG/1.1/DTD/svg11.dtd">
<svg version="1.1" id="Layer_1" xmlns="http://www.w3.org/2000/svg" xmlns:xlink="http://www.w3.org/1999/xlink" x="0px" y="0px"
	 viewBox="0 0 256 256" enable-background="new 0 0 256 256" xml:space="preserve">
<filter  id="Drop-Shadow" filterUnits="objectBoundingBox">
	<feGaussianBlur  in="SourceAlpha" result="blur" stdDeviation="1.33"></feGaussianBlur>
	<feOffset  dx="0" dy="1.33" in="blur" result="offsetBlurredAlpha"></feOffset>
	<feMerge>
		<feMergeNode  in="offsetBlurredAlpha"></feMergeNode>
		<feMergeNode  in="SourceGraphic"></feMergeNode>
	</feMerge>
</filter>
<g>
	<g>
		
			<linearGradient id="SVGID_1_" gradientUnits="userSpaceOnUse" x1="224.9873" y1="-91.6079" x2="370.5325" y2="-237.1531" gradientTransform="matrix(1 0 0 -1 -169.5996 -35.9004)">
			<stop  offset="0" style="stop-color:#5E4421"/>
			<stop  offset="1" style="stop-color:#373100"/>
		</linearGradient>
		<rect x="55.11" y="55.99" opacity="0.95" fill="url(#SVGID_1_)" enable-background="new    " width="146.11" height="144.98"/>
		<g filter="url(#Drop-Shadow)">
			
				<linearGradient id="SVGID_2_" gradientUnits="userSpaceOnUse" x1="217.5488" y1="-85.667" x2="377.6503" y2="-242.0842" gradientTransform="matrix(1 0 0 -1 -169.5996 -35.9004)">
				<stop  offset="0" style="stop-color:#FDC45E"/>
				<stop  offset="1" style="stop-color:#FC9C0D"/>
			</linearGradient>
			<path fill="url(#SVGID_2_)" d="M48.82,48.88v158.19h158.37V48.88H48.82z M194.59,194.54H61.74V61.75h132.86V194.54L194.59,194.54
				z"/>
		</g>
		<g>
			<g opacity="0.1">
				<path d="M106.52,142.72l-5.63,18.97H88.56l20.98-66.93h15.25l21.27,66.93h-12.82l-5.93-18.97H106.52z M125.27,133.49L120.12,117
					c-1.26-4.07-2.33-8.64-3.3-12.51h-0.19c-0.97,3.87-1.94,8.54-3.11,12.51l-5.05,16.48L125.27,133.49L125.27,133.49z"/>
			</g>
			<g>
				
					<linearGradient id="SVGID_3_" gradientUnits="userSpaceOnUse" x1="257.0146" y1="-162.7949" x2="332.0584" y2="-162.7949" gradientTransform="matrix(1 0 0 -1 -169.5996 -35.9004)">
					<stop  offset="0" style="stop-color:#FDC45E"/>
					<stop  offset="1" style="stop-color:#FC9C0D"/>
				</linearGradient>
				<path fill="url(#SVGID_3_)" d="M106.52,141.39l-5.63,18.97H88.56l20.98-66.93h15.25l21.27,66.93h-12.82l-5.93-18.97H106.52z
					 M125.27,132.16l-5.15-16.48c-1.26-4.07-2.33-8.64-3.3-12.51h-0.19c-0.97,3.87-1.94,8.54-3.11,12.51l-5.05,16.48H125.27z"/>
			</g>
		</g>
		<g>
			<g opacity="0.1">
				<path d="M163.43,99.82c0,3.67-2.62,6.55-6.8,6.55c-3.98,0-6.6-2.88-6.6-6.55c0-3.77,2.72-6.65,6.7-6.65
					C160.81,93.17,163.33,96.05,163.43,99.82z M150.71,161.69v-48.36h12.04v48.36H150.71z"/>
			</g>
			<g>
				
					<linearGradient id="SVGID_4_" gradientUnits="userSpaceOnUse" x1="257.0117" y1="-162.0049" x2="332.0579" y2="-162.0049" gradientTransform="matrix(1 0 0 -1 -169.5996 -35.9004)">
					<stop  offset="0" style="stop-color:#FDC45E"/>
					<stop  offset="1" style="stop-color:#FC9C0D"/>
				</linearGradient>
				<path fill="url(#SVGID_4_)" d="M163.43,98.5c0,3.67-2.62,6.55-6.8,6.55c-3.98,0-6.6-2.88-6.6-6.55c0-3.77,2.72-6.65,6.7-6.65
					C160.81,91.84,163.33,94.72,163.43,98.5z M150.71,160.36V112h12.04v48.36H150.71z"/>
			</g>
		</g>
	</g>
	<g>
		<path fill="#FC9C0D" d="M51.63,215.02v14.62h-2.61v-14.62H51.63z"/>
		<path fill="#FC9C0D" d="M54.63,214.23h2.61v15.4h-2.61V214.23z"/>
		<path fill="#FC9C0D" d="M60.08,214.23h2.61v15.4h-2.61V214.23z"/>
		<path fill="#FC9C0D" d="M74.79,226.46c0,1.26,0.04,2.3,0.08,3.17h-2.27l-0.13-1.58h-0.06c-0.45,0.74-1.46,1.82-3.33,1.82
			s-3.58-1.15-3.58-4.6v-6.2h2.61v5.75c0,1.76,0.55,2.88,1.93,2.88c1.06,0,1.74-0.74,1.99-1.43c0.11-0.22,0.15-0.52,0.15-0.82v-6.38
			h2.61V226.46z"/>
		<path fill="#FC9C0D" d="M77.5,227.16c0.57,0.37,1.7,0.78,2.63,0.78c1.15,0,1.65-0.5,1.65-1.19c0-0.71-0.42-1.06-1.7-1.54
			c-2.01-0.69-2.84-1.82-2.84-3.08c0-1.87,1.51-3.3,3.9-3.3c1.15,0,2.14,0.28,2.76,0.63l-0.53,1.87c-0.42-0.26-1.27-0.61-2.18-0.61
			c-0.93,0-1.44,0.47-1.44,1.13c0,0.67,0.49,0.97,1.8,1.47c1.89,0.67,2.74,1.65,2.76,3.21c0,1.93-1.46,3.32-4.2,3.32
			c-1.25,0-2.38-0.3-3.14-0.74L77.5,227.16z"/>
		<path fill="#FC9C0D" d="M89.44,216.36v2.71h2.48v1.99h-2.48v4.66c0,1.3,0.34,1.95,1.34,1.95c0.47,0,0.72-0.02,1.02-0.11l0.04,2.02
			c-0.38,0.15-1.08,0.28-1.89,0.28c-0.98,0-1.76-0.33-2.25-0.87c-0.57-0.61-0.83-1.58-0.83-2.97v-4.97h-1.46v-1.99h1.46v-1.97
			L89.44,216.36z"/>
		<path fill="#FC9C0D" d="M93.88,222.47c0-1.43-0.02-2.47-0.08-3.4h2.25l0.11,1.99h0.06c0.51-1.47,1.72-2.23,2.84-2.23
			c0.25,0,0.4,0.02,0.61,0.07v2.49c-0.23-0.04-0.47-0.07-0.78-0.07c-1.23,0-2.1,0.8-2.33,2.02c-0.04,0.24-0.06,0.52-0.06,0.8v5.49
			H93.9v-7.16H93.88z"/>
		<path fill="#FC9C0D" d="M109.27,227.09c0,0.95,0.04,1.88,0.17,2.54h-2.35l-0.19-1.17h-0.06c-0.62,0.82-1.7,1.41-3.05,1.41
			c-2.08,0-3.25-1.54-3.25-3.14c0-2.65,2.31-4.01,6.13-3.99v-0.17c0-0.69-0.28-1.84-2.1-1.84c-1.02,0-2.08,0.32-2.78,0.78
			l-0.51-1.73c0.76-0.48,2.1-0.93,3.73-0.93c3.31,0,4.26,2.15,4.26,4.47V227.09z M106.71,224.47c-1.85-0.02-3.61,0.37-3.61,1.97
			c0,1.04,0.66,1.52,1.48,1.52c1.06,0,1.8-0.69,2.06-1.45c0.06-0.2,0.06-0.39,0.06-0.59L106.71,224.47L106.71,224.47z"/>
		<path fill="#FC9C0D" d="M114.88,216.36v2.71h2.48v1.99h-2.48v4.66c0,1.3,0.34,1.95,1.34,1.95c0.47,0,0.72-0.02,1.02-0.11
			l0.04,2.02c-0.38,0.15-1.08,0.28-1.89,0.28c-0.98,0-1.76-0.33-2.25-0.87c-0.57-0.61-0.83-1.58-0.83-2.97v-4.97h-1.46v-1.99h1.46
			v-1.97L114.88,216.36z"/>
		<path fill="#FC9C0D" d="M129.02,224.25c0,3.88-2.67,5.62-5.3,5.62c-2.91,0-5.17-2.04-5.17-5.44c0-3.47,2.23-5.6,5.34-5.6
			C126.96,218.83,129.02,221.04,129.02,224.25z M121.25,224.36c0,2.04,1,3.58,2.57,3.58c1.48,0,2.52-1.47,2.52-3.62
			c0-1.65-0.72-3.55-2.5-3.55C121.99,220.76,121.25,222.6,121.25,224.36z"/>
		<path fill="#FC9C0D" d="M131.17,222.47c0-1.43-0.02-2.47-0.08-3.4h2.25l0.11,1.99h0.06c0.51-1.47,1.72-2.23,2.84-2.23
			c0.25,0,0.4,0.02,0.62,0.07v2.49c-0.23-0.04-0.47-0.07-0.79-0.07c-1.23,0-2.1,0.8-2.33,2.02c-0.04,0.24-0.06,0.52-0.06,0.8v5.49
			h-2.61L131.17,222.47L131.17,222.47z"/>
	</g>
</g>
</svg>
