<?xml version="1.0" encoding="utf-8"?>
<!-- Generator: Adobe Illustrator 16.0.0, SVG Export Plug-In . SVG Version: 6.00 Build 0)  -->
<!DOCTYPE svg PUBLIC "-//W3C//DTD SVG 1.1//EN" "http://www.w3.org/Graphics/SVG/1.1/DTD/svg11.dtd">
<svg version="1.1" id="Layer_1" xmlns="http://www.w3.org/2000/svg" xmlns:xlink="http://www.w3.org/1999/xlink" x="0px" y="0px"
	 width="256px" height="256px" viewBox="0 0 256 256" enable-background="new 0 0 256 256" xml:space="preserve">
<g>
	<g>
		<polygon fill="#1F62AE" points="220.44,231.11 128,256 35.56,231.11 14.23,0 241.77,0 		"/>
		<polygon fill="#3C9BD5" points="128,18.71 128,236.13 128.2,236.2 203.02,216.05 220.29,18.71 		"/>
		<g>
			<polygon fill="#FFFFFF" points="127.91,76.5 61.75,104.06 63.94,131.35 127.91,103.99 195.96,74.89 198.78,47 			"/>
			
				<linearGradient id="SVGID_1_" gradientUnits="userSpaceOnUse" x1="434.0293" y1="716.1484" x2="434.0293" y2="661.3018" gradientTransform="matrix(1 0 0 1 -339.1992 -584.8008)">
				<stop  offset="0.3865" style="stop-color:#D0D2D3;stop-opacity:0"/>
				<stop  offset="1" style="stop-color:#D0D2D3"/>
			</linearGradient>
			<polygon fill="url(#SVGID_1_)" points="61.75,104.06 63.94,131.35 127.91,103.99 127.91,76.5 			"/>
			
				<linearGradient id="SVGID_2_" gradientUnits="userSpaceOnUse" x1="502.5449" y1="688.7939" x2="502.5449" y2="631.8018" gradientTransform="matrix(1 0 0 1 -339.1992 -584.8008)">
				<stop  offset="0.3865" style="stop-color:#D0D2D3;stop-opacity:0"/>
				<stop  offset="1" style="stop-color:#D0D2D3"/>
			</linearGradient>
			<polygon fill="url(#SVGID_2_)" points="198.78,47 127.91,76.5 127.91,103.99 195.96,74.89 			"/>
			
				<linearGradient id="SVGID_3_" gradientUnits="userSpaceOnUse" x1="401.0586" y1="740.5928" x2="532.7578" y2="740.5928" gradientTransform="matrix(1 0 0 1 -339.1992 -584.8008)">
				<stop  offset="0" style="stop-color:#E7E6E5"/>
				<stop  offset="1" style="stop-color:#FFFFFF"/>
			</linearGradient>
			<polygon fill="url(#SVGID_3_)" points="61.86,104.06 64.05,131.35 162.21,131.64 160,168.04 127.71,177.11 96.66,169.29 
				94.78,146.7 65.93,146.7 69.69,190.29 128.02,207.53 186.04,190.61 193.56,104.06 			"/>
			<g opacity="0.05">
				<polygon fill="#231F20" points="127.91,104.06 61.75,104.06 63.94,131.35 127.91,131.53 				"/>
				<polygon fill="#231F20" points="127.91,177.05 127.6,177.11 96.55,169.29 94.68,146.7 65.83,146.7 69.6,190.29 127.91,207.53 
									"/>
			</g>
			
				<linearGradient id="SVGID_4_" gradientUnits="userSpaceOnUse" x1="394.9883" y1="645.7461" x2="537.9844" y2="645.7461" gradientTransform="matrix(1 0 0 1 -339.1992 -584.8008)">
				<stop  offset="0" style="stop-color:#E7E6E5"/>
				<stop  offset="1" style="stop-color:#FFFFFF"/>
			</linearGradient>
			<polygon fill="url(#SVGID_4_)" points="55.79,47 198.78,47 195.96,74.89 59.24,74.89 			"/>
			<polygon opacity="0.05" fill="#231F20" enable-background="new    " points="127.91,47 55.79,47 59.24,74.89 127.91,74.89 			"/>
		</g>
	</g>
</g>
</svg>
