<?xml version="1.0" encoding="utf-8"?>
<!DOCTYPE svg PUBLIC "-//W3C//DTD SVG 1.1//EN" "http://www.w3.org/Graphics/SVG/1.1/DTD/svg11.dtd">
<svg version="1.1" id="Layer_1" xmlns="http://www.w3.org/2000/svg" xmlns:xlink="http://www.w3.org/1999/xlink" x="0px" y="0px"
	 viewBox="0 0 256 256" enable-background="new 0 0 256 256" xml:space="preserve">
<filter  id="Drop-Shadow" filterUnits="objectBoundingBox">
	<feGaussianBlur  in="SourceAlpha" result="blur" stdDeviation="1.33"></feGaussianBlur>
	<feOffset  dx="0" dy="1.33" in="blur" result="offsetBlurredAlpha"></feOffset>
	<feMerge>
		<feMergeNode  in="offsetBlurredAlpha"></feMergeNode>
		<feMergeNode  in="SourceGraphic"></feMergeNode>
	</feMerge>
</filter>
<g>
	<g>
		
			<linearGradient id="SVGID_1_" gradientUnits="userSpaceOnUse" x1="224.9971" y1="-91.6079" x2="370.5427" y2="-237.1536" gradientTransform="matrix(1 0 0 -1 -169.5996 -35.9004)">
			<stop  offset="0" style="stop-color:#375428"/>
			<stop  offset="1" style="stop-color:#2D342C"/>
		</linearGradient>
		<rect x="55.12" y="55.99" opacity="0.95" fill="url(#SVGID_1_)" enable-background="new    " width="146.11" height="144.98"/>
		<g filter="url(#Drop-Shadow)">
			
				<linearGradient id="SVGID_2_" gradientUnits="userSpaceOnUse" x1="217.5488" y1="-85.667" x2="377.6504" y2="-242.0842" gradientTransform="matrix(1 0 0 -1 -169.5996 -35.9004)">
				<stop  offset="0" style="stop-color:#8EF208"/>
				<stop  offset="1" style="stop-color:#83E605"/>
			</linearGradient>
			<path fill="url(#SVGID_2_)" d="M48.82,48.88v158.19h158.37V48.88H48.82z M194.59,194.54H61.74V61.75h132.86V194.54L194.59,194.54
				z"/>
		</g>
		<g>
			<g opacity="0.1">
				<path d="M72.46,95.11c4.75-0.89,10.82-1.39,17.23-1.39c11.08,0,18.73,2.58,24.18,7.75c5.72,5.26,9.23,13.21,9.23,24.63
					c0,11.91-3.61,20.85-9.23,26.61c-5.89,6.06-15.3,9.13-26.82,9.13c-6.33,0-11.08-0.4-14.6-0.89L72.46,95.11L72.46,95.11z
					 M83.28,151.82c1.49,0.3,3.78,0.3,5.98,0.3c14.07,0.1,22.42-8.64,22.42-25.62c0.09-14.8-7.47-23.24-21.01-23.24
					c-3.43,0-5.89,0.3-7.38,0.7L83.28,151.82L83.28,151.82z"/>
			</g>
			<g>
				
					<linearGradient id="SVGID_3_" gradientUnits="userSpaceOnUse" x1="242.1611" y1="-162.3604" x2="353.9254" y2="-162.3604" gradientTransform="matrix(1 0 0 -1 -169.5996 -35.9004)">
					<stop  offset="0" style="stop-color:#8EF208"/>
					<stop  offset="1" style="stop-color:#83E605"/>
				</linearGradient>
				<path fill="url(#SVGID_3_)" d="M72.46,93.79c4.75-0.89,10.82-1.39,17.23-1.39c11.08,0,18.73,2.58,24.18,7.75
					c5.72,5.26,9.23,13.21,9.23,24.63c0,11.91-3.61,20.85-9.23,26.61c-5.89,6.06-15.3,9.13-26.82,9.13c-6.33,0-11.08-0.4-14.6-0.89
					L72.46,93.79L72.46,93.79z M83.28,150.49c1.49,0.3,3.78,0.3,5.98,0.3c14.07,0.1,22.42-8.64,22.42-25.62
					c0.09-14.8-7.47-23.24-21.01-23.24c-3.43,0-5.89,0.3-7.38,0.7L83.28,150.49L83.28,150.49z"/>
			</g>
		</g>
		<g>
			<g opacity="0.1">
				<path d="M135.04,112.79l4.34,21.95c0.94,5.16,1.87,10.43,2.64,15.69h0.17c0.85-5.27,2.22-10.63,3.41-15.59l5.37-22.05h8.52
					l5.2,21.45c1.28,5.66,2.39,10.92,3.32,16.19h0.17c0.68-5.27,1.62-10.53,2.73-16.19l4.6-21.45h10.31l-13.04,48.36h-9.71
					l-4.94-19.66c-1.28-5.07-2.21-9.63-3.15-15.49h-0.17c-0.85,5.96-1.96,10.73-3.15,15.49l-5.28,19.66h-9.8l-12.27-48.36H135.04z"
					/>
			</g>
			<g>
				
					<linearGradient id="SVGID_4_" gradientUnits="userSpaceOnUse" x1="242.1611" y1="-171.5405" x2="353.9265" y2="-171.5405" gradientTransform="matrix(1 0 0 -1 -169.5996 -35.9004)">
					<stop  offset="0" style="stop-color:#8EF208"/>
					<stop  offset="1" style="stop-color:#83E605"/>
				</linearGradient>
				<path fill="url(#SVGID_4_)" d="M135.04,111.46l4.34,21.95c0.94,5.16,1.87,10.43,2.64,15.69h0.17
					c0.85-5.27,2.22-10.63,3.41-15.59l5.37-22.05h8.52l5.2,21.45c1.28,5.66,2.39,10.92,3.32,16.19h0.17
					c0.68-5.27,1.62-10.53,2.73-16.19l4.6-21.45h10.31l-13.04,48.36h-9.71l-4.94-19.66c-1.28-5.07-2.21-9.63-3.15-15.49h-0.17
					c-0.85,5.96-1.96,10.73-3.15,15.49l-5.28,19.66h-9.8l-12.27-48.36H135.04L135.04,111.46z"/>
			</g>
		</g>
	</g>
	<g>
		<path fill="#83E605" d="M49.03,215.21c1.17-0.17,2.61-0.3,4.16-0.3c2.67,0,4.5,0.56,5.81,1.69c1.4,1.15,2.25,2.91,2.25,5.38
			c0,2.63-0.87,4.55-2.23,5.81c-1.42,1.32-3.69,2-6.47,2c-1.51,0-2.65-0.09-3.52-0.2V215.21z M51.63,227.61
			c0.36,0.06,0.91,0.06,1.44,0.06c3.39,0.02,5.41-1.91,5.41-5.62c0.02-3.21-1.8-5.07-5.07-5.07c-0.83,0-1.4,0.06-1.78,0.15V227.61z"
			/>
		<path fill="#83E605" d="M63.46,222.47c0-1.43-0.02-2.47-0.08-3.4h2.25l0.11,1.99h0.06c0.51-1.47,1.72-2.23,2.84-2.23
			c0.25,0,0.4,0.02,0.61,0.06v2.49c-0.23-0.04-0.47-0.06-0.78-0.06c-1.23,0-2.1,0.8-2.33,2.02c-0.04,0.24-0.06,0.52-0.06,0.8v5.49
			h-2.61v-7.16H63.46z"/>
		<path fill="#83E605" d="M72.67,225.1c0.06,1.91,1.51,2.73,3.18,2.73c1.21,0,2.06-0.2,2.86-0.48l0.38,1.82
			c-0.89,0.39-2.12,0.67-3.61,0.67c-3.35,0-5.32-2.1-5.32-5.34c0-2.93,1.74-5.68,5.05-5.68c3.35,0,4.45,2.82,4.45,5.14
			c0,0.5-0.04,0.89-0.08,1.13L72.67,225.1L72.67,225.1z M77.21,223.23c0.02-0.98-0.4-2.58-2.14-2.58c-1.61,0-2.29,1.5-2.4,2.58
			H77.21z"/>
		<path fill="#83E605" d="M89.78,227.09c0,0.96,0.04,1.89,0.17,2.54h-2.35l-0.19-1.17h-0.07c-0.62,0.82-1.7,1.41-3.05,1.41
			c-2.08,0-3.25-1.54-3.25-3.14c0-2.64,2.31-4.01,6.13-3.99v-0.17c0-0.7-0.28-1.84-2.1-1.84c-1.02,0-2.08,0.32-2.78,0.78l-0.51-1.73
			c0.76-0.48,2.1-0.93,3.73-0.93c3.31,0,4.26,2.15,4.26,4.47L89.78,227.09L89.78,227.09z M87.24,224.47
			c-1.85-0.02-3.61,0.37-3.61,1.97c0,1.04,0.66,1.52,1.48,1.52c1.06,0,1.8-0.69,2.06-1.45c0.06-0.2,0.06-0.39,0.06-0.59
			L87.24,224.47L87.24,224.47z"/>
		<path fill="#83E605" d="M92.54,222.21c0-1.21-0.04-2.23-0.08-3.14h2.23l0.13,1.56h0.06c0.49-0.82,1.42-1.8,3.18-1.8
			c1.36,0,2.42,0.78,2.86,1.95h0.04c0.36-0.59,0.78-1.02,1.25-1.32c0.59-0.41,1.25-0.63,2.12-0.63c1.7,0,3.44,1.19,3.44,4.57v6.22
			h-2.55v-5.83c0-1.76-0.59-2.8-1.85-2.8c-0.89,0-1.55,0.65-1.82,1.41c-0.08,0.24-0.13,0.58-0.13,0.89v6.33h-2.54v-6.12
			c0-1.47-0.57-2.52-1.78-2.52c-0.98,0-1.63,0.78-1.89,1.5c-0.08,0.28-0.13,0.59-0.13,0.89v6.25h-2.54V222.21z"/>
		<path fill="#83E605" d="M111.75,219.07l1.06,4.79c0.25,1.13,0.49,2.28,0.68,3.43h0.04c0.21-1.15,0.55-2.32,0.83-3.4l1.36-4.81
			h2.12l1.29,4.68c0.32,1.24,0.59,2.38,0.83,3.54H120c0.15-1.15,0.4-2.3,0.68-3.54l1.15-4.68h2.57l-3.25,10.56h-2.42l-1.23-4.29
			c-0.32-1.11-0.55-2.1-0.78-3.38h-0.04c-0.23,1.3-0.49,2.34-0.78,3.38l-1.32,4.29h-2.44l-3.05-10.56L111.75,219.07L111.75,219.07z"
			/>
		<path fill="#83E605" d="M127.63,225.1c0.06,1.91,1.51,2.73,3.18,2.73c1.21,0,2.06-0.2,2.86-0.48l0.38,1.82
			c-0.89,0.39-2.12,0.67-3.61,0.67c-3.35,0-5.32-2.1-5.32-5.34c0-2.93,1.74-5.68,5.05-5.68c3.35,0,4.45,2.82,4.45,5.14
			c0,0.5-0.04,0.89-0.08,1.13L127.63,225.1L127.63,225.1z M132.17,223.23c0.02-0.98-0.4-2.58-2.14-2.58c-1.61,0-2.29,1.5-2.4,2.58
			H132.17z"/>
		<path fill="#83E605" d="M144.74,227.09c0,0.96,0.04,1.89,0.17,2.54h-2.36l-0.19-1.17h-0.06c-0.62,0.82-1.7,1.41-3.05,1.41
			c-2.08,0-3.24-1.54-3.24-3.14c0-2.64,2.31-4.01,6.13-3.99v-0.17c0-0.7-0.28-1.84-2.1-1.84c-1.02,0-2.08,0.32-2.78,0.78l-0.51-1.73
			c0.76-0.48,2.1-0.93,3.73-0.93c3.31,0,4.26,2.15,4.26,4.47V227.09L144.74,227.09z M142.19,224.47c-1.85-0.02-3.61,0.37-3.61,1.97
			c0,1.04,0.66,1.52,1.49,1.52c1.06,0,1.8-0.69,2.06-1.45c0.06-0.2,0.06-0.39,0.06-0.59V224.47z"/>
		<path fill="#83E605" d="M148.93,219.07l1.68,5.36c0.3,0.93,0.51,1.78,0.7,2.65h0.06c0.19-0.87,0.42-1.69,0.7-2.65l1.65-5.36h2.74
			l-3.95,10.56h-2.57l-3.84-10.56H148.93z"/>
		<path fill="#83E605" d="M159.63,225.1c0.06,1.91,1.51,2.73,3.18,2.73c1.21,0,2.06-0.2,2.86-0.48l0.38,1.82
			c-0.89,0.39-2.12,0.67-3.61,0.67c-3.35,0-5.32-2.1-5.32-5.34c0-2.93,1.74-5.68,5.05-5.68c3.35,0,4.45,2.82,4.45,5.14
			c0,0.5-0.04,0.89-0.08,1.13L159.63,225.1L159.63,225.1z M164.17,223.23c0.02-0.98-0.4-2.58-2.14-2.58c-1.61,0-2.29,1.5-2.4,2.58
			H164.17z"/>
		<path fill="#83E605" d="M168.71,222.47c0-1.43-0.02-2.47-0.09-3.4h2.25l0.11,1.99h0.06c0.51-1.47,1.72-2.23,2.84-2.23
			c0.25,0,0.4,0.02,0.61,0.06v2.49c-0.23-0.04-0.47-0.06-0.78-0.06c-1.23,0-2.1,0.8-2.33,2.02c-0.04,0.24-0.06,0.52-0.06,0.8v5.49
			h-2.61V222.47z"/>
	</g>
</g>
</svg>
