<?xml version="1.0" encoding="utf-8"?>
<!DOCTYPE svg PUBLIC "-//W3C//DTD SVG 1.1//EN" "http://www.w3.org/Graphics/SVG/1.1/DTD/svg11.dtd">
<svg version="1.1" id="Layer_1" xmlns="http://www.w3.org/2000/svg" xmlns:xlink="http://www.w3.org/1999/xlink" x="0px" y="0px"
	 viewBox="0 0 256 256" enable-background="new 0 0 256 256" xml:space="preserve">
<g>
	<path fill="#FFFFFF" d="M192.04,187.53c1.09-4.51-2.55-7.87-8.16-7.6c-0.04,0-0.08,0.01-0.13,0.01c-5.55,0.32-10.9,4.09-11.99,8.58
		c-1.09,4.52,2.56,7.93,8.15,7.59c0.05,0,0.09,0,0.13-0.01C185.59,195.78,190.95,192.02,192.04,187.53z"/>
	<path fill="#FFFFFF" d="M175.65,179.64c-0.65-2.65-2.87-4.78-5.49-4.72c-5.23,0.16-9.14,4.77-9.68,9.81
		c2.01-1.23,6.72-2.69,11.47-2C173.35,180.96,175.65,179.64,175.65,179.64z"/>
	<path fill="#FFFFFF" d="M124.89,71.52c-1.75-7.12-7.71-12.84-14.74-12.64C96.14,59.29,85.62,71.66,84.2,85.16
		c5.39-3.3,18.02-7.21,30.76-5.35C118.71,75.06,124.89,71.52,124.89,71.52z"/>
	<path fill="#FFFFFF" d="M136.29,115.69c0.12-0.01,0.23-0.02,0.35-0.02c14.89-0.87,29.24-10.96,32.15-22.98
		c2.93-12.12-6.85-21.12-21.86-20.39c-0.11,0-0.23,0.02-0.34,0.03c-14.9,0.87-29.25,10.97-32.16,23
		C111.51,107.45,121.3,116.57,136.29,115.69z"/>
	<path fill="#010101" d="M196.08,60.16c0.41-1.44,0.58-2.98,0.49-4.56c-0.06-1.03-0.25-2.02-0.51-2.97
		c2.42-1.47,4.26-3.65,4.84-6.07c0.51-2.11,0.03-4.12-1.37-5.66c-1.55-1.72-4.37-2.63-6.86-2.48c-2.29,0.13-3.8,0.84-3.8,0.84
		s-1.74-5-6.34-4.58c-1.2,0.1-2.82,0.48-4,1.11c-3.54,1.89-6.02,5.66-6.02,9.14v0.02c-3.92,2.95-5.74,7.34-5.45,12.32
		c0.46,7.85,7.56,13.86,15.58,13.39c5.02-0.29,9.42-3.04,11.8-6.97c0.04-0.06,0.28-0.22,0.28-0.22l7.04,0.91l-5.75-3.99
		C196,60.39,196.05,60.23,196.08,60.16z M175.37,63.25c-3.46,0.21-6.43-2.38-6.63-5.76c-0.2-3.39,2.44-6.3,5.91-6.5
		c3.46-0.2,6.42,2.38,6.62,5.77C181.48,60.13,178.83,63.04,175.37,63.25z M189.96,52.3c-0.03,0-0.06,0.01-0.09,0.01
		c-4.07,0.24-6.74-2.24-5.94-5.54c0.79-3.27,4.69-6.01,8.74-6.25c0.03,0,0.07-0.01,0.09-0.01c4.08-0.2,6.75,2.25,5.95,5.55
		C197.92,49.32,194.01,52.06,189.96,52.3z"/>
	<path fill="#010101" d="M154.37,156.73l25.79,3.34l-21.22-14.66c0,0,0.16-0.56,0.24-0.84c1.46-5.31,2.11-10.94,1.76-16.75
		c-0.22-3.78-0.91-7.41-1.9-10.92c8.92-5.42,15.67-13.44,17.82-22.32c1.87-7.76,0.07-15.13-5.02-20.8
		c-5.69-6.29-16.1-9.65-25.23-9.11c-8.41,0.5-13.98,3.1-13.98,3.1s-6.43-18.37-23.33-16.84c-4.4,0.4-8.46,1.77-12.8,4.09
		C83.46,61.97,76.06,75.82,76.27,88.6l0.01,0.08c-16.31,10.87-23.01,26.99-21.93,45.3c1.7,28.88,26.82,50.93,56.32,49.21
		c18.45-1.09,34.15-11.19,42.9-25.65C153.7,157.34,154.37,156.73,154.37,156.73z M82.98,155.88c-12.73,0.75-23.64-8.74-24.37-21.2
		c-0.74-12.46,8.99-23.16,21.72-23.91c12.73-0.75,23.64,8.74,24.38,21.2C105.44,144.44,95.71,155.14,82.98,155.88z M84.2,85.16
		c1.43-13.5,11.94-25.86,25.95-26.28c7.03-0.21,12.99,5.52,14.74,12.64c0,0-6.18,3.54-9.94,8.29
		C102.23,77.95,89.59,81.86,84.2,85.16z M114.44,95.32c2.92-12.03,17.27-22.13,32.16-23c0.12-0.01,0.23-0.02,0.34-0.03
		c15.01-0.73,24.8,8.27,21.86,20.39c-2.91,12.02-17.27,22.11-32.16,22.98c-0.12,0.01-0.23,0.02-0.35,0.02
		C121.3,116.57,111.51,107.45,114.44,95.32z M115.85,177.93c5.83-12.93,8.86-30.02,7.77-48.55c-0.1-1.76-0.25-3.5-0.43-5.23
		c3.66,0.74,7.7,1.06,12.03,0.91c0.13,1.19,0.24,2.41,0.31,3.63C136.74,149.14,128.74,167.53,115.85,177.93z M132.6,170.03
		c7.18-11.38,11.06-25.74,10.17-41.13c-0.09-1.47-0.23-2.92-0.41-4.35c3.21-0.78,6.33-1.84,9.33-3.16c0.47,2.25,0.8,4.56,0.94,6.93
		C153.63,145.2,145.58,160.57,132.6,170.03z"/>
	<path fill="#FFFFFF" d="M80.33,110.78c-12.72,0.75-22.45,11.46-21.72,23.91c0.73,12.45,11.65,21.95,24.37,21.2
		c12.73-0.74,22.45-11.45,21.72-23.91C103.97,119.52,93.05,110.03,80.33,110.78z M73.78,145.48c-6.66,0.39-12.37-4.57-12.75-11.08
		c-0.38-6.52,4.7-12.12,11.36-12.51c6.65-0.4,12.36,4.58,12.74,11.08C85.52,139.5,80.43,145.09,73.78,145.48z"/>
	<path fill="#010101" d="M61.03,134.39c-0.38-6.52,4.7-12.11,11.36-12.5c6.66-0.39,12.37,4.57,12.75,11.08
		c0.38,6.52-4.71,12.12-11.36,12.51C67.12,145.86,61.41,140.9,61.03,134.39z"/>
	<path fill="#FEEE0B" d="M151.7,121.4c-3,1.32-6.12,2.38-9.33,3.16c0.18,1.43,0.32,2.88,0.41,4.35
		c0.89,15.39-2.99,29.75-10.17,41.13c12.98-9.46,21.04-24.84,20.04-41.71C152.5,125.96,152.17,123.65,151.7,121.4z"/>
	<path fill="#FEEE0B" d="M135.53,128.69c-0.07-1.22-0.18-2.44-0.31-3.63c-4.33,0.15-8.37-0.17-12.03-0.91
		c0.18,1.73,0.32,3.47,0.43,5.23c1.09,18.53-1.95,35.62-7.77,48.55C128.74,167.53,136.74,149.14,135.53,128.69z"/>
	<path fill="#010101" d="M188.43,206.89c0.55-1.99,0.78-4.08,0.66-6.25c-0.08-1.41-0.35-2.77-0.7-4.07
		c3.32-2.02,5.84-5.01,6.65-8.32c0.71-2.91,0.03-5.65-1.88-7.76c-2.12-2.35-5.99-3.61-9.41-3.4c-3.13,0.19-5.22,1.17-5.22,1.17
		s-2.39-6.85-8.69-6.28c-1.64,0.15-3.24,0.65-4.86,1.52c-4.86,2.59-7.63,7.76-7.63,12.53v0.03c-6.6,4.05-8.5,10.07-8.09,16.89
		c0.62,10.77,10.04,19,21.05,18.35c6.88-0.4,12.75-4.17,16.01-9.56c0.04-0.07,0.31-0.31,0.31-0.31l9.62,1.25l-7.91-5.46
		C188.33,207.21,188.4,206.99,188.43,206.89z M160.03,211.1c-4.75,0.28-8.82-3.26-9.09-7.9c-0.28-4.65,3.35-8.64,8.09-8.92
		c4.74-0.28,8.81,3.26,9.09,7.91C168.4,206.83,164.77,210.82,160.03,211.1z M160.48,184.73c0.54-5.04,4.45-9.65,9.68-9.81
		c2.62-0.07,4.85,2.06,5.49,4.72c0,0-2.31,1.32-3.7,3.09C167.2,182.04,162.49,183.5,160.48,184.73z M179,215.9
		c2.36-4.22,3.62-9.58,3.28-15.31c-0.04-0.55-0.08-1.09-0.14-1.62c1.06-0.28,2.09-0.66,3.08-1.16c0.16,0.85,0.28,1.71,0.33,2.59
		C185.92,206.69,183.29,212.4,179,215.9z M180.04,196.1c-0.04,0-0.08,0-0.13,0c-5.59,0.34-9.24-3.07-8.15-7.59
		c1.09-4.48,6.44-8.25,11.99-8.57c0.05-0.01,0.09-0.01,0.13-0.01c5.6-0.27,9.25,3.08,8.16,7.6
		C190.95,192.02,185.59,195.78,180.04,196.1z"/>
	<path fill="#FFFFFF" d="M159.04,194.28c-4.74,0.28-8.37,4.28-8.09,8.92c0.27,4.64,4.34,8.18,9.09,7.9c4.74-0.28,8.36-4.27,8.1-8.92
		C167.85,197.54,163.78,194,159.04,194.28z M156.61,207.23c-2.49,0.14-4.61-1.71-4.75-4.14c-0.14-2.43,1.75-4.52,4.23-4.66
		c2.49-0.15,4.61,1.71,4.75,4.13C160.98,204.99,159.09,207.09,156.61,207.23z"/>
	
		<ellipse transform="matrix(0.0594 0.9982 -0.9982 0.0594 349.5208 34.7208)" fill="#010101" cx="156.34" cy="202.84" rx="4.41" ry="4.5"/>
	<path fill="#FEEE0B" d="M185.22,197.81c-0.99,0.49-2.02,0.87-3.08,1.16c0.06,0.53,0.11,1.07,0.14,1.62
		c0.34,5.73-0.92,11.08-3.28,15.31c4.29-3.5,6.93-9.21,6.55-15.5C185.5,199.52,185.38,198.66,185.22,197.81z"/>
	<path fill="#FFFFFF" d="M198.71,46.05c0.81-3.3-1.85-5.74-5.95-5.55c-0.03,0-0.07,0-0.09,0.01c-4.05,0.24-7.95,2.98-8.74,6.25
		c-0.8,3.3,1.86,5.78,5.94,5.54c0.03,0,0.07-0.01,0.09-0.01C194.01,52.06,197.92,49.32,198.71,46.05z"/>
	<path fill="#FFFFFF" d="M174.65,50.98c-3.47,0.21-6.11,3.11-5.91,6.5c0.2,3.38,3.17,5.97,6.63,5.76c3.46-0.2,6.11-3.11,5.9-6.5
		C181.08,53.36,178.12,50.78,174.65,50.98z M172.87,60.44c-1.81,0.11-3.36-1.24-3.46-3.02c-0.1-1.77,1.28-3.3,3.08-3.4
		c1.81-0.11,3.36,1.24,3.47,3.01C176.06,58.8,174.68,60.33,172.87,60.44z"/>
	
		<ellipse transform="matrix(0.0599 0.9982 -0.9982 0.0599 219.4723 -118.5698)" fill="#010101" cx="172.68" cy="57.23" rx="3.21" ry="3.28"/>
</g>
</svg>
