<?xml version="1.0" encoding="utf-8"?>
<!-- Generator: Adobe Illustrator 16.0.0, SVG Export Plug-In . SVG Version: 6.00 Build 0)  -->
<!DOCTYPE svg PUBLIC "-//W3C//DTD SVG 1.1//EN" "http://www.w3.org/Graphics/SVG/1.1/DTD/svg11.dtd">
<svg version="1.1" id="Layer_1" xmlns="http://www.w3.org/2000/svg" xmlns:xlink="http://www.w3.org/1999/xlink" x="0px" y="0px"
	 width="256px" height="256px" viewBox="0 0 256 256" enable-background="new 0 0 256 256" xml:space="preserve">
<g id="Guides_to_delete">
	<g>
		<polygon fill="#E34E26" points="35.74,230.39 15.2,0 240.8,0 220.23,230.41 127.93,256 		"/>
		<polygon fill="#EF662A" points="127.99,18.83 127.99,236.42 202.63,215.74 220.2,18.83 		"/>
		<polygon fill="#FFFFFF" points="57.22,47.09 64.84,132.55 162.76,132.55 159.49,169.2 127.96,177.73 96.46,169.21 94.37,145.68 
			66.02,145.68 70.06,191.05 127.95,207.12 185.89,191.05 193.66,104.29 90.68,104.29 88.09,75.35 196.15,75.35 196.21,75.35 
			198.75,47.09 		"/>
		<g>
			<polygon fill="#EBEBEB" points="127.99,47.09 57.22,47.09 64.84,132.55 127.99,132.55 127.99,104.29 90.68,104.29 88.09,75.35 
				127.99,75.35 			"/>
			<polygon fill="#EBEBEB" points="127.99,177.72 127.96,177.73 96.46,169.21 94.37,145.68 66.02,145.68 70.06,191.05 
				127.95,207.12 127.99,207.11 			"/>
		</g>
	</g>
</g>
</svg>
