<svg xmlns="http://www.w3.org/2000/svg" viewBox="-169 292.89 256 256" enable-background="new -169 292.89 256 256"><filter id="b" filterUnits="objectBoundingBox"><feGaussianBlur result="blur" in="SourceAlpha" stdDeviation="1.33"/><feOffset result="offsetBlurredAlpha" in="blur" dy="1.33"/><feMerge><feMergeNode in="offsetBlurredAlpha"/><feMergeNode in="SourceGraphic"/></feMerge></filter><radialGradient id="a" cx="128.765" cy="1299.16" r="72.773" gradientTransform="translate(-169.6 -877.79)" gradientUnits="userSpaceOnUse"><stop offset="0" style="stop-color:#4B2B36;stop-opacity:0.98"/><stop offset="1" style="stop-color:#250012"/></radialGradient><path fill="url(#a)" d="M-113.89 348.88H32.22v144.98h-146.11z"/><path fill="#FF408C" filter="url(#b)" d="M-120.18 341.77v158.19H38.19V341.77h-158.37zM25.59 487.43h-132.85V354.64H25.6v132.79h-.01z"/><radialGradient id="c" cx="-30.133" cy="421.307" r="27.818" gradientUnits="userSpaceOnUse"><stop offset="0" style="stop-color:#4B2B36;stop-opacity:0.98"/><stop offset="1" style="stop-color:#250012"/></radialGradient><path opacity=".1" fill="url(#c)" d="M-26.84 455.294c5.182 0 10.73-1.097 15.972-3.597.427-.244.55-.305.55-.732-.306-2.316-.306-4.45-.306-6.157v-57c0-.305-.122-.488-.61-.488h-9.876c-.305 0-.61.183-.61.61v16.216c-1.218-.122-1.95-.122-3.23-.122-15.423 0-25.055 11.34-24.995 25.91 0 17.008 9.632 25.36 23.105 25.36zm1.524-41.943c1.463 0 2.682.184 3.597.61v30.848c-1.218.55-2.803.73-4.327.73-7.01 0-12.62-4.632-12.62-16.093 0-10.058 5.487-16.094 13.35-16.094z"/><radialGradient id="d" cx="-66.222" cy="420.85" r="24.024" gradientUnits="userSpaceOnUse"><stop offset="0" style="stop-color:#4B2B36;stop-opacity:0.98"/><stop offset="1" style="stop-color:#250012"/></radialGradient><path opacity=".1" fill="url(#d)" d="M-70.916 454.38h9.388c.67 0 .793-.184.793-.793v-65.535c0-.55-.244-.732-.732-.732h-9.45c-.487 0-.792.183-.792.793v65.474c0 .487.184.792.794.792z"/><g fill="#FF408C"><path d="M-117.346 507.895v14.624h-2.67v-14.625h2.67zM-114.55 515.098c0-1.215-.02-2.234-.086-3.146h2.343l.13 1.584h.065c.456-.824 1.606-1.822 3.363-1.822 1.844 0 3.754 1.193 3.754 4.535v6.27h-2.67v-5.967c0-1.52-.564-2.67-2.018-2.67-1.063 0-1.8.76-2.083 1.564-.087.238-.11.563-.11.867v6.206h-2.69v-7.422zM-102.204 508.09c1.172-.194 2.67-.304 4.253-.304 2.733 0 4.62.564 5.966 1.693 1.41 1.148 2.278 2.885 2.278 5.38 0 2.604-.89 4.557-2.278 5.814-1.454 1.324-3.775 1.997-6.618 1.997-1.563 0-2.734-.086-3.602-.194V508.09zm2.67 12.39c.368.064.932.064 1.475.064 3.473.02 5.534-1.888 5.534-5.598.022-3.233-1.844-5.078-5.186-5.078-.846 0-1.454.065-1.823.152v10.46zM-85.714 517.984c.065 1.91 1.562 2.734 3.255 2.734 1.238 0 2.127-.174 2.93-.478l.39 1.845c-.91.368-2.17.65-3.688.65-3.428 0-5.446-2.104-5.446-5.338 0-2.93 1.78-5.685 5.164-5.685 3.43 0 4.557 2.82 4.557 5.143 0 .5-.043.89-.086 1.128h-7.074zm4.643-1.866c.02-.976-.414-2.582-2.193-2.582-1.65 0-2.343 1.498-2.452 2.582h4.644zM-76.688 520.067c.607.37 1.758.76 2.712.76 1.172 0 1.692-.478 1.692-1.172 0-.716-.434-1.085-1.736-1.54-2.062-.717-2.93-1.845-2.908-3.08 0-1.867 1.54-3.32 3.993-3.32 1.172 0 2.19.303 2.8.628l-.522 1.888c-.456-.26-1.302-.606-2.235-.606-.955 0-1.476.456-1.476 1.106 0 .673.5 1 1.844 1.476 1.91.694 2.8 1.67 2.82 3.233 0 1.908-1.496 3.297-4.295 3.297-1.28 0-2.43-.304-3.21-.737l.522-1.933zM-64.91 509.002c0 .803-.585 1.432-1.518 1.432-.89 0-1.476-.63-1.476-1.432 0-.825.607-1.454 1.497-1.454.912 0 1.476.63 1.498 1.454zm-2.84 13.517V511.95h2.69v10.567h-2.69zM-52.753 511.952c-.044.717-.087 1.584-.087 3.038v5.988c0 2.214-.456 3.798-1.563 4.796-1.106.977-2.625 1.28-4.08 1.28-1.345 0-2.776-.282-3.687-.847l.586-2.018c.673.39 1.8.802 3.08.802 1.736 0 3.038-.91 3.038-3.19v-.91h-.043c-.606.933-1.69 1.562-3.08 1.562-2.626 0-4.492-2.17-4.492-5.164 0-3.472 2.256-5.576 4.795-5.576 1.605 0 2.56.78 3.06 1.65h.043l.108-1.412h2.323zm-2.756 4.23c0-.237-.02-.498-.086-.715-.282-.977-1.04-1.714-2.17-1.714-1.497 0-2.604 1.302-2.604 3.45 0 1.8.91 3.254 2.582 3.254.998 0 1.866-.65 2.17-1.605.065-.282.108-.65.108-.955v-1.714zM-50.17 515.098c0-1.215-.02-2.234-.085-3.146h2.343l.13 1.584h.065c.456-.824 1.605-1.822 3.363-1.822 1.845 0 3.754 1.193 3.754 4.535v6.27h-2.67v-5.967c0-1.52-.563-2.67-2.017-2.67-1.063 0-1.8.76-2.083 1.564-.087.238-.108.563-.108.867v6.206h-2.69v-7.422z"/></g><path fill="#FF408C" d="M-26.84 454.294c5.182 0 10.73-1.097 15.972-3.597.427-.244.55-.305.55-.732-.306-2.316-.306-4.45-.306-6.157v-57c0-.305-.122-.488-.61-.488h-9.876c-.305 0-.61.183-.61.61v16.216c-1.218-.122-1.95-.122-3.23-.122-15.423 0-25.055 11.34-24.995 25.91 0 17.008 9.632 25.36 23.105 25.36zm1.524-41.943c1.463 0 2.682.184 3.597.61v30.848c-1.218.55-2.803.73-4.327.73-7.01 0-12.62-4.632-12.62-16.093 0-10.058 5.487-16.094 13.35-16.094zM-70.916 453.38h9.388c.67 0 .793-.184.793-.793v-65.535c0-.55-.244-.732-.732-.732h-9.45c-.487 0-.792.183-.792.793v65.474c0 .487.184.792.794.792z"/></svg>
