<?xml version="1.0" encoding="utf-8"?>
<!-- Generator: Adobe Illustrator 16.0.0, SVG Export Plug-In . SVG Version: 6.00 Build 0)  -->
<!DOCTYPE svg PUBLIC "-//W3C//DTD SVG 1.1//EN" "http://www.w3.org/Graphics/SVG/1.1/DTD/svg11.dtd">
<svg version="1.1" id="Layer_1" xmlns="http://www.w3.org/2000/svg" xmlns:xlink="http://www.w3.org/1999/xlink" x="0px" y="0px"
	 width="256px" height="256px" viewBox="0 0 256 256" enable-background="new 0 0 256 256" xml:space="preserve">
<g>
	<rect x="10" y="10" fill="#F0DB4F" width="236" height="236"/>
	<path fill="#323330" d="M226.69,189.72c-1.72-10.77-8.75-19.82-29.55-28.24c-7.23-3.32-15.27-5.7-17.67-11.17
		c-0.85-3.2-0.97-4.98-0.43-6.9c1.54-6.26,9.03-8.21,14.94-6.42c3.81,1.28,7.42,4.21,9.6,8.91c10.19-6.59,10.18-6.54,17.27-11.08
		c-2.6-4.05-4-5.9-5.7-7.63c-6.13-6.83-14.46-10.36-27.81-10.1c-2.31,0.3-4.64,0.61-6.95,0.89c-6.67,1.69-13.01,5.18-16.74,9.87
		c-11.18,12.68-7.98,34.87,5.6,43.99c13.38,10.06,33.07,12.34,35.58,21.75c2.44,11.51-8.44,15.24-19.29,13.91
		c-7.99-1.66-12.42-5.71-17.23-13.11c-8.83,5.13-8.83,5.13-17.93,10.34c2.16,4.7,4.42,6.85,8.03,10.92
		c17.09,17.34,59.88,16.49,67.54-9.75C226.29,204.99,228.35,198.98,226.69,189.72z M138.31,118.48h-22.08
		c0,19.08-0.08,38.01-0.08,57.07c0,12.14,0.62,23.25-1.36,26.68c-3.24,6.7-11.6,5.87-15.41,4.57c-3.88-1.92-5.85-4.62-8.14-8.44
		c-0.62-1.11-1.1-1.96-1.25-2.02c-5.98,3.65-11.96,7.32-17.95,10.99c2.98,6.13,7.38,11.44,13.01,14.9
		c8.41,5.05,19.72,6.59,31.55,3.88c7.7-2.25,14.34-6.9,17.82-13.96c5.03-9.26,3.95-20.47,3.9-32.9
		C138.41,158.99,138.31,138.77,138.31,118.48z"/>
</g>
</svg>
