<?xml version="1.0" encoding="utf-8"?>
<!-- Generator: Adobe Illustrator 17.1.0, SVG Export Plug-In . SVG Version: 6.00 Build 0)  -->
<!DOCTYPE svg PUBLIC "-//W3C//DTD SVG 1.1//EN" "http://www.w3.org/Graphics/SVG/1.1/DTD/svg11.dtd">
<svg version="1.1" id="Layer_1" xmlns="http://www.w3.org/2000/svg" xmlns:xlink="http://www.w3.org/1999/xlink" x="0px" y="0px"
	 viewBox="0 0 512 512" enable-background="new 0 0 512 512" xml:space="preserve">
<g>
	<path fill="#FFFFFF" d="M264,349.6c-3-2.3-7.4-1.7-9.9,1.5l-10.2,13c-2.5,3.2-2.1,7.6,0.9,10c3,2.3,7.4,1.7,9.9-1.5l10.2-13
		C267.4,356.4,267,352,264,349.6z"/>
	<path fill="#FFFFFF" d="M456.5,56c-15.4,2.3-26.3,9.1-47.6,5.4c-0.5-2.4-1.6-4.2-2.8-5.9c-1.9-0.2-3.9-0.4-6.1-0.8
		c-2-9-11.1-10.9-13.2-19.9c-29.2,13.9-83.6,32.9-106.4,8.5c-9.1-4.7-15.8-13.1-18.3-26.6c-1.5-0.9-2.7-1.8-3.7-2.8
		c0,5.3,0,10.5,0,15.8c-5.1-1.2-6.2-6.3-12.5-6.3c3.3,5.1,6.5,10.2,6.2,18.8c-7.2-7.5-15.9-2.5-6.3,0c-19.1,4.3-13.8,16.4-62.7,12.4
		c0.6-2.6,2.2-4.2,3.7-6c-3.7-0.1-7.9-0.3-12.6-0.7c0-0.1,0.1-0.2,0.1-0.3c-11.3-0.1-23.2-7.6-31.1-14.5c-1.6-1-3.1-2.1-4.5-3.2
		c-8.5,7.8-9.2,23.5-18.3,30.8c-21.6,2.7-35.1-2.6-50.1-6.4c-17.4,2.6,3.6,44-10.9,49.5l0.9,3c56.4,51.4,8.9,162.7,8.4,252.4
		c3.1-0.7,5.4,3.8,5.2,9.9c7.1-11,13.8,7.9,3.8,21.4c2.8,1.1,5.6,2.3,7.9,4c-0.2,1.3-0.3,2.6-0.3,3.9c0,10.5,7.4,19.1,16.6,19.1
		c2.8,0,5.5-0.8,7.9-2.3c-1.1,20.4-4.6,40.9-1.6,61.3c0.2,1.3,2.6,2.4,5.3,2.4c2.7,0,5.1-1.1,5.3-2.4c3-20.3-0.5-40.5-1.6-60.8
		c1.2,0.7,2.4,1.5,3.4,2.3c3.8,0,6.6-1,8.8-2.5c-0.3,3.4-0.4,6.9-0.3,10.3c0.2,3.2,2.8,5.8,5.2,5.8c2.4,0,5-2.6,5.2-5.8
		c0.4-7-0.7-14.1-1.1-21.1c3.3-4,7.5-7,16.1-5.7c0.1,5.5,6.2,5.1,11,5.9c0,0,1.3,0.3,1.6,0.4c0.1,0.5,1.2,4,1.5,5.4
		c2.4,0.5,5.1,0.6,7.4,1.2c0.9,4.2-1.1,5.4-3.9,5.9c3.5,3.2,7.5,1.8,12.1,4.7c0.3,0.7,0.6,1.5,0.8,2.2c0.3-0.2,0.5-0.4,0.8-0.6
		c10.7,5.7,20.9,11.8,29.9,19.2c18.1,12.4,32.6,28.3,38.8,52.5c17.4-27.5,37.5-52.4,59.8-75c0.5-0.7,1.2-1.3,1.9-2
		c3.3-3.3,6.6-6.5,10-9.7c1.4-1.3,2.7-2.8,4.5-3.6c1.6-0.8,3.4-1.1,5.1-1.9c8.2-3.5,16.9-4.4,25.6-4.5c-0.2,0-1.8,3.7-2.1,4.3
		c-0.5,0.7-1.1,1.4-1.6,2.1c-0.5,1.1-0.7,2.2-0.6,3.1c3.9-1.4,8.3-2.2,13.3-2.6c-2,2.9-3.9,5.7-4.3,8c2.7,0.7,5.5,1.3,6.5,1.4
		c3.9,0.3,7.9-0.2,12.1-1.2c4.5-1.1,9.1-2.8,13.7-4.9c17.2-7.9,34.3-20.6,44.7-22.3c0.1,0,0.1-3.2,0.1-3.5
		c0.2-9.8,0.2-19.7-0.3-29.5c-0.5-10.4-1.3-20.7-2.3-31.1c-1-10.6-2.1-21.2-3.3-31.8c-1.2-10.6-2.4-21.3-3.5-31.9
		c-1.1-10.3-2.4-20.7-3.2-31.1c-0.7-9.3-1.1-18.5-1.3-27.8c-1.1-42.1,4.3-78.9,27-101.9C447.2,80.3,455.6,75.7,456.5,56z
		 M322.1,79.5l0.8-2.3l12.6,0l35.7-0.1l-46.8,69.3c-1.6-1.9-3.4-3.5-5.4-4.8l-1.2-0.8l-4.6,0.1l-11.7,4c-1.3,0.4-2.5,0.9-3.8,1.3
		L322.1,79.5z M258.2,301.5l0.2,5.4l-0.7,0.9l-0.1-0.2l0.4-6.5l0.1-1.2l-0.7-0.9l-90-117.1c1-1.2,1.9-2.4,2.7-3.3
		c0.9-1,5.7-3.6,8.5-5.2c5.8-3.2,9.1-5.1,10.8-7.2c2.1-1,4.2-2.3,6.3-4c1.5-1.2,4.2-3.3,5.5-3.7c2.9,3,9.5,5.2,16.5,6.7
		c-0.5,7.2-1,14.4-1.5,21.6c-4.2,0-8.4,0-12.5,0c0,10.5,0,20.9-0.1,31.4c36.1,0.1,72.1,0.2,108.2,0.2c3.4-7.6,0.8-21.2,1.6-31.4
		c-4.3-1-12.4,2-14.1-1.6c-0.5-9.9-1.1-19.6-1.7-29.3c2.4-0.8,4.8-1.6,7-2.4c0,0,8.6-3,10.2-3.5c5,4,8.7,12,12.3,19.9
		c4.1,9.1,8.3,18.3,15.3,23.2l-82.8,103.9l-1.5,1.8L258.2,301.5z M194.7,343.6c-3-3.3-6.6-5.8-10.6-7.7c-1.3-3-2.8-5.2-4-6.8
		c0.9-0.4,2.1-0.9,4-1.6l4.8-1.7l-2.1-4.7c-1-2.2-3.9-8.7-9.8-9.5c-5.7-0.8-9.7,3.9-12.9,7.7c-0.6,0.7-1.3,1.5-2,2.2
		c-5.3-2.8-13.4-7.7-18.4-11.2c1.5,0.1,4.5,0.3,4.5,0.3l-0.8-5.7c-1.5-11.4-7.7-15.8-17-22.3c0,0-2.6-1.9-3.6-2.5
		c-2.4-3.7-14.4-24.4-18.9-33.1c1-0.2,2.1-0.5,3.1-0.7c3.7-0.8,7.5-1.6,10.2-3.1c0.6-0.2,1.2,0,2.8,0.5c4.6,1.7,9.8,2.3,13.8-6.9
		l0.5-1.1l-0.1-1.2c0-0.4,0-0.8,0-1.2c0-4.5,2.2-7.6,6.9-10l3.2-1.6l-0.6-3.5c0-0.2-0.1-0.5-0.1-0.7c0-1.8,0.9-4.6,2.4-8l24.6,88.6
		l0.2,0.6l0.4,0.5l32.2,39.6l0.2,0.3l0.3,0.2l15.2,11.8l-5.4,6.8c-8.8-0.9-17.6-2.1-26.4-3.8c-0.2,0-0.2-0.1-0.3-0.1
		c0.2-0.2,0.5-0.5,0.7-0.7c1.6-1.6,3.1-3.1,3.8-5l1-2.7L194.7,343.6z M128.8,233.9c-0.3,0.5-0.5,1-0.7,1.3c-0.4-0.1-0.7-0.3-0.7-0.3
		c-2-0.8-5.5-2.1-9.7-0.5l-0.4,0.2l-0.4,0.3c-1.3,0.8-5,1.6-7.7,2.2c-0.8,0.2-1.5,0.3-2.2,0.5c1.5-11.1,2.8-22,3.5-32.8L139,213
		c-0.3,1.3-0.6,2.5-0.7,3.7c-6.2,4-9.5,9.6-9.6,16.7C128.8,233.5,128.8,233.7,128.8,233.9z M111.1,189.4c0.2-15.9-1.1-31.2-5-45.2
		l31.7,21.7l8.5,30.5c-1,1.7-1.9,3.3-2.7,5L111.1,189.4z M117.9,283.1l-18.7,5.3c0.9-6,1.9-12,2.8-17.9c0.6-3.8,1.2-7.6,1.8-11.5
		C108.5,267.5,114.4,277.6,117.9,283.1z M213.8,332.6l-22.3-29.3l-32.7-117.7l90.4,117.5l-0.3,5.8l-0.1,1.2l0.7,0.9l2.8,3.6
		l-23.5,29.6L213.8,332.6z M267.2,77.3l0.3,0l-0.1-9.3l17.8,9.2l0.3,0c5.8,1.8,12.1,2.9,19,3.2l-12.1,42.3c-9,0-18,0-27-0.1
		L267.2,77.3z M253,132.3c0.5-0.1,1-0.3,1.5-0.4c0,0,0,0,0,0c0.3-0.1,0.6-0.1,1-0.1c0.3,0,0.6-0.1,1-0.1c0.4,0,0.7-0.1,1.1-0.1
		c0.3,0,0.5,0.1,0.8,0.1c0,0,0,0,0,0c2.2,0.1,4.3,0.6,6.2,1.4c0.2,0.1,0.3,0.2,0.5,0.3l0-0.4c3.9,1.6,7.3,4.4,9,8.6
		c0.2,1.2,0.3,2.2,0.4,3.3c-0.6-2.7-2-5.2-3.8-7.2c1.6,1.9,2.8,4.2,3.3,6.7c0.1,0.3,0.1,0.6,0.1,1c0.1,0.4,0.1,0.7,0.1,1.1
		c0,0.4,0.1,0.8,0.1,1.2c0,3.8-1.4,7.2-3.7,9.9c-0.3,0.3-0.5,0.7-0.8,1c-0.4,0.4-0.9,0.9-1.4,1.2c-0.4,0.4-0.9,0.7-1.3,1
		c-0.6,0.4-1.2,0.7-1.9,1c-0.4,0.2-0.7,0.4-1,0.5c-2.1,0.8-4.3,1.3-6.7,1.3c-0.1,0-0.1,0-0.1,0c-1.3,0-2.6-0.2-3.8-0.5
		c-2.8-0.6-5.3-1.9-7.3-3.7c2.1,2,4.8,3.5,7.8,4.2l0,0.1c-8.5-1.7-15.8-9.2-12.9-22.4c2.2-5.1,6.7-8.2,11.8-9.3L253,132.3z
		 M226.9,77.4l17.4-7.1l7,7.1l0,0.5l1.5,44.8c-9,0-18,0-27-0.1l-12-42.5C219,79.5,223.2,78.6,226.9,77.4z M162,77.5l33.7-0.1
		l1.2,3.3l22,61.2c-0.2,4.7-0.4,9.3-0.7,13.9c-4.9-1.1-9.2-2.4-10.4-3.7c-3.5-4-7.6-3.5-11.3-1.8l-48.7-72.9L162,77.5z M93,84.5
		c6,1.2,12.6,2.1,20,2.1c4.4,0,8.9-0.3,13.5-0.8l5-0.6l0.2-0.2l55.4,71.9c-0.8,0.6-1.6,1.1-2,1.2l-2.2,0.6l-1.5,3.3l0.7-1.6
		c-0.9,1-5.3,3.4-8.1,4.9c-3.8,2.1-6.6,3.7-8.6,5.2l-72.4-57.1L93,84.5z M100.3,348.8c-2-2.5-4.4-4.6-7.2-6
		c0.5-12,1.9-24.5,3.5-37.1l33.1-12.1c3.8,2.9,6,5.1,7.3,8.2c-2.3,1-4.2,2.7-5.6,5.2l-1.2,2.3l1.3,2.3c1.3,2.4,5.7,5.7,10.7,8.9
		L100.3,348.8z M149.5,380.6l-0.6,0.7l-0.5-0.3l-34.3-21l40.7-32c3.2,1.8,5.5,3,5.6,3l1.2,0.6l1.3-0.1c2.6-0.2,4.7-1.9,6.6-4
		c0,0.2-0.1,0.4-0.1,0.6c0,2.5,1.6,4.5,2.9,6.2c1.3,1.7,2.8,3.6,3.8,6.5l0.7,2l1.7,0.7L149.5,380.6z M209.5,368.5l-3.9,4.9l2.8,2.3
		l-9.7,26.5l-3.8-2c-0.1-0.5-0.2-0.9-0.3-1.4l-2.2-10.5l-9.6-2.8l-0.1-4.5l-12.7-1.9l12.5-18.7c2.3,2,5.5,2.7,7,3
		c7.1,1.4,14.2,2.4,21.3,3.2L209.5,368.5z M249.5,439.1c-10.4-12.2-23.2-21.5-36.3-29.1l7.2-25l26.2,20.8l4.2,3.3L249.5,439.1z
		 M251.5,398.7l-33-25.5l48.9-63.3l-0.4-7L366,175.4l1.2,1.7l-36.4,128.6l-23,30.1l-17.6,13.4L251.5,398.7z M409.1,183.8
		c-0.1,1.8-0.1,3.7-0.1,5.5l-31.7,11.6l12.1-40.7l26-17.6C411.9,154.7,409.8,168.4,409.1,183.8z M414.1,272.7
		c-8.3-3.2-17.3,0.8-25.4,4.4c-1.6,0.7-3.2,1.5-4.8,2.1l-12.6-3.7c-0.6-2.2-1.1-5.2-1.4-9.5l-0.5-14.7l42.7,1.7
		C412.7,259.5,413.4,266.1,414.1,272.7z M408.9,205c0.2,10.9,0.9,22.1,1.8,33.5l-41.7,1.4c-0.1-3.1-0.3-6.2-0.6-9.3l4.6-15.4
		L408.9,205z M369.4,288.8c6.9,4.2,15.2,0.4,23.3-3.2c6.8-3.1,13.9-6.2,18.5-4.1c1,0.4,3.5,1.6,3.5,5.6c0,0.9-0.1,1.9-0.4,3
		c-1.3,5.3-5.2,10.6-9.5,13.8c-0.2-0.4-0.3-0.7-0.5-1.1c0,0-1.2-2.1-2.2-3.9c2.2-2.3,5.2-5.4,5.2-5.4l-10.7-0.2
		c-8.7-0.1-10.9,12.3-12.4,25.1l-1.1,8.5c0,0,3.1-0.8,5-1.3c-2.1,9.7-8.4,26.3-12.1,28.5c-4.5-1-7.9-2.7-11.4-4.6
		c-3.9-2.1-7.9-4.2-13.4-5.2l-0.5-0.1l-0.5,0c-2.7,0-5.2-1.3-8.1-2.9c-4.1-2.2-9.3-5-15.8-3.5l-0.8,0.2l-0.7,0.4
		c-3.9,2.4-7.9,3.8-12.4,4.6l0.6-0.4l0.5-0.6l32.9-39l0.8-1l0.4-1.3l12.6-42.4l0.3,8.2C361.2,278.5,364,285.6,369.4,288.8z
		 M296.2,372l-28.1,21.6l-1.9-2.5l22.9-28.5L296.2,372z M279.7,432.5l-12.7,7.9l-1.1-36.1l0.8,1l2.5-1.9l27-20.7l6.8,24.1
		C294.7,415,287,423.6,279.7,432.5z M346.7,384.2l-21.4,9.1l-4.8-3.7c-1.8,1.6-3.4,3.3-5.1,4.9l-7.6-21l0.2-0.1l-0.4-0.5l-5.7-15.9
		c2.7-2.1,5.5-3.8,8.8-4.3c5.4-0.5,10.6-2.1,15.5-4.6l23.2,34.8L346.7,384.2z M365.8,378.9l-20-25.8c1.1,0.3,2.2,0.4,3.4,0.5
		c4.1,0.8,7.2,2.4,10.7,4.3c3.9,2.1,8.3,4.4,14.5,5.6c2.4,0.5,6,0.1,9.8-4.7c1.7-2.1,3.5-5.2,5.2-8.8l10,8L365.8,378.9z
		 M415.1,348.3l-19.8-13.5c1.6-5.5,2.6-10.7,2.6-14.4c0-1.6-0.2-2.9-0.6-3.9c0,0-0.1-0.2-0.1-0.2c7.2,0,14.5-4.8,19.6-11.2l0.9,0.3
		c1.4,13.2,2.7,26.3,3.5,39.1L415.1,348.3z M429.1,111.4L429.1,111.4L429.1,111.4L342,179.3c-2.3-3.8-4.4-8.4-6.5-13
		c-1.4-3.2-2.9-6.4-4.4-9.4l56.1-72.2l8.7,1.5c5,0.9,9.7,1.3,14.3,1.3c7.3,0,13.4-1,18.9-2.2L429.1,111.4z"/>
</g>
</svg>
