<?xml version="1.0" encoding="utf-8"?>
<!DOCTYPE svg PUBLIC "-//W3C//DTD SVG 1.1//EN" "http://www.w3.org/Graphics/SVG/1.1/DTD/svg11.dtd">
<svg version="1.1" id="Layer_1" xmlns="http://www.w3.org/2000/svg" xmlns:xlink="http://www.w3.org/1999/xlink" x="0px" y="0px"
	 viewBox="0 0 256 256" enable-background="new 0 0 256 256" xml:space="preserve">
<filter  id="Drop-Shadow" filterUnits="objectBoundingBox">
	<feGaussianBlur  in="SourceAlpha" result="blur" stdDeviation="1.33"></feGaussianBlur>
	<feOffset  dx="0" dy="1.33" in="blur" result="offsetBlurredAlpha"></feOffset>
	<feMerge>
		<feMergeNode  in="offsetBlurredAlpha"></feMergeNode>
		<feMergeNode  in="SourceGraphic"></feMergeNode>
	</feMerge>
</filter>
<g>
	<g>
		
			<linearGradient id="SVGID_1_" gradientUnits="userSpaceOnUse" x1="225.1982" y1="-91.3672" x2="370.3433" y2="-236.5122" gradientTransform="matrix(1 0 0 -1 -169.5996 -35.9004)">
			<stop  offset="0" style="stop-color:#52315C"/>
			<stop  offset="1" style="stop-color:#352941"/>
		</linearGradient>
		<rect x="55.12" y="55.95" opacity="0.95" fill="url(#SVGID_1_)" enable-background="new    " width="146.11" height="144.18"/>
		<g filter="url(#Drop-Shadow)">
			
				<linearGradient id="SVGID_2_" gradientUnits="userSpaceOnUse" x1="217.7666" y1="-85.4438" x2="377.4333" y2="-241.4361" gradientTransform="matrix(1 0 0 -1 -169.5996 -35.9004)">
				<stop  offset="0" style="stop-color:#DC87FC"/>
				<stop  offset="1" style="stop-color:#D13FFA"/>
			</linearGradient>
			<path fill="url(#SVGID_2_)" d="M48.82,48.88V206.2h158.37V48.88H48.82z M194.59,193.73H61.74V61.68h132.86V193.73L194.59,193.73z
				"/>
		</g>
		
			<linearGradient id="SVGID_3_" gradientUnits="userSpaceOnUse" x1="260.1611" y1="-162.3657" x2="340.3418" y2="-162.3657" gradientTransform="matrix(1 0 0 -1 -169.5996 -35.9004)">
			<stop  offset="0" style="stop-color:#DC87FC"/>
			<stop  offset="1" style="stop-color:#D13FFA"/>
		</linearGradient>
		<path fill="url(#SVGID_3_)" d="M90.36,93.62c4.37-0.81,10.42-1.41,18.66-1.41c8.93,0,15.48,1.92,19.74,5.55
			c3.97,3.33,6.55,8.68,6.55,15.03c0,6.46-1.98,11.8-5.76,15.44c-4.86,4.95-12.5,7.26-21.13,7.26c-2.28,0-4.37-0.1-5.95-0.4v25.63
			H90.36V93.62z M102.46,125.3c1.49,0.41,3.47,0.5,5.95,0.5c9.13,0,14.69-4.54,14.69-12.51c0-7.57-5.16-11.6-13.59-11.6
			c-3.37,0-5.75,0.3-7.04,0.6L102.46,125.3L102.46,125.3z"/>
		
			<linearGradient id="SVGID_4_" gradientUnits="userSpaceOnUse" x1="260.168" y1="-171.4902" x2="340.3391" y2="-171.4902" gradientTransform="matrix(1 0 0 -1 -169.5996 -35.9004)">
			<stop  offset="0" style="stop-color:#DC87FC"/>
			<stop  offset="1" style="stop-color:#D13FFA"/>
		</linearGradient>
		<path fill="url(#SVGID_4_)" d="M144.13,127.42c0-6.66-0.1-11.4-0.4-15.84h10.62l0.4,9.38h0.4c2.38-6.96,8.04-10.49,13.2-10.49
			c1.19,0,1.88,0.1,2.88,0.3v11.71c-0.99-0.2-2.08-0.4-3.57-0.4c-5.85,0-9.82,3.83-10.91,9.38c-0.2,1.11-0.4,2.42-0.4,3.83v25.42
			h-12.22V127.42z"/>
	</g>
	<g>
		<path fill="#D13FFA" d="M49.03,214.29c0.95-0.17,2.25-0.3,3.99-0.3c1.91,0,3.29,0.41,4.2,1.19c0.85,0.71,1.4,1.86,1.4,3.21
			c0,1.38-0.42,2.5-1.21,3.28c-1.06,1.06-2.67,1.57-4.52,1.57c-0.49,0-0.91-0.02-1.27-0.11v5.5h-2.59V214.29z M51.61,221.04
			c0.34,0.11,0.74,0.13,1.27,0.13c1.95,0,3.14-0.99,3.14-2.68c0-1.62-1.1-2.46-2.91-2.46c-0.72,0-1.23,0.06-1.51,0.13v4.88H51.61z"
			/>
		<path fill="#D13FFA" d="M60.52,221.51c0-1.42-0.02-2.46-0.08-3.38h2.25l0.1,1.98h0.06c0.51-1.47,1.72-2.22,2.84-2.22
			c0.25,0,0.4,0.02,0.62,0.06v2.48c-0.23-0.04-0.47-0.06-0.79-0.06c-1.23,0-2.1,0.8-2.33,2.01c-0.04,0.24-0.06,0.52-0.06,0.8v5.46
			h-2.61V221.51z"/>
		<path fill="#D13FFA" d="M69.71,224.12c0.06,1.9,1.51,2.72,3.18,2.72c1.21,0,2.06-0.2,2.86-0.47l0.38,1.81
			c-0.89,0.39-2.12,0.67-3.61,0.67c-3.35,0-5.32-2.09-5.32-5.31c0-2.91,1.74-5.65,5.05-5.65c3.35,0,4.45,2.8,4.45,5.11
			c0,0.49-0.04,0.88-0.08,1.12H69.71z M74.25,222.27c0.02-0.97-0.4-2.57-2.14-2.57c-1.61,0-2.29,1.49-2.4,2.57H74.25z"/>
		<path fill="#D13FFA" d="M78.82,221.26c0-1.21-0.04-2.22-0.08-3.13h2.23l0.13,1.55h0.06c0.49-0.82,1.42-1.79,3.18-1.79
			c1.36,0,2.42,0.78,2.86,1.94h0.04c0.36-0.58,0.79-1.01,1.25-1.31c0.59-0.41,1.25-0.63,2.12-0.63c1.7,0,3.44,1.19,3.44,4.55v6.19
			H91.5v-5.8c0-1.75-0.59-2.78-1.85-2.78c-0.89,0-1.55,0.65-1.82,1.4c-0.08,0.24-0.13,0.58-0.13,0.88v6.3h-2.54v-6.08
			c0-1.47-0.57-2.5-1.78-2.5c-0.98,0-1.63,0.78-1.89,1.49c-0.08,0.28-0.13,0.58-0.13,0.88v6.21h-2.54L78.82,221.26L78.82,221.26z"/>
		<path fill="#D13FFA" d="M99.58,215.2c0,0.78-0.57,1.42-1.49,1.42c-0.87,0-1.44-0.65-1.44-1.42c0-0.82,0.6-1.45,1.46-1.45
			C99,213.75,99.56,214.38,99.58,215.2z M96.79,228.63v-10.5h2.61v10.5H96.79z"/>
		<path fill="#D13FFA" d="M104.07,224.12c0.06,1.9,1.51,2.72,3.18,2.72c1.21,0,2.06-0.2,2.86-0.47l0.38,1.81
			c-0.89,0.39-2.12,0.67-3.61,0.67c-3.35,0-5.32-2.09-5.32-5.31c0-2.91,1.74-5.65,5.05-5.65c3.35,0,4.45,2.8,4.45,5.11
			c0,0.49-0.04,0.88-0.09,1.12H104.07z M108.61,222.27c0.02-0.97-0.4-2.57-2.14-2.57c-1.61,0-2.29,1.49-2.4,2.57H108.61z"/>
		<path fill="#D13FFA" d="M113.17,221.51c0-1.42-0.02-2.46-0.08-3.38h2.25l0.11,1.98h0.06c0.51-1.47,1.72-2.22,2.84-2.22
			c0.25,0,0.4,0.02,0.62,0.06v2.48c-0.23-0.04-0.47-0.06-0.79-0.06c-1.23,0-2.1,0.8-2.33,2.01c-0.04,0.24-0.06,0.52-0.06,0.8v5.46
			h-2.61L113.17,221.51L113.17,221.51z"/>
		<path fill="#D13FFA" d="M122.37,224.12c0.06,1.9,1.51,2.72,3.18,2.72c1.21,0,2.06-0.2,2.86-0.47l0.38,1.81
			c-0.89,0.39-2.12,0.67-3.61,0.67c-3.35,0-5.32-2.09-5.32-5.31c0-2.91,1.74-5.65,5.05-5.65c3.35,0,4.45,2.8,4.45,5.11
			c0,0.49-0.04,0.88-0.08,1.12H122.37z M126.91,222.27c0.02-0.97-0.4-2.57-2.14-2.57c-1.61,0-2.29,1.49-2.4,2.57H126.91z"/>
		<path fill="#D13FFA" d="M135.96,214.29c0.96-0.17,2.25-0.3,3.99-0.3c1.91,0,3.29,0.41,4.2,1.19c0.85,0.71,1.4,1.86,1.4,3.21
			c0,1.38-0.42,2.5-1.21,3.28c-1.06,1.06-2.67,1.57-4.52,1.57c-0.49,0-0.91-0.02-1.27-0.11v5.5h-2.59V214.29L135.96,214.29z
			 M138.54,221.04c0.34,0.11,0.74,0.13,1.27,0.13c1.95,0,3.14-0.99,3.14-2.68c0-1.62-1.1-2.46-2.91-2.46
			c-0.72,0-1.23,0.06-1.51,0.13L138.54,221.04L138.54,221.04z"/>
		<path fill="#D13FFA" d="M147.46,221.51c0-1.42-0.02-2.46-0.08-3.38h2.25l0.11,1.98h0.06c0.51-1.47,1.72-2.22,2.84-2.22
			c0.25,0,0.4,0.02,0.62,0.06v2.48c-0.23-0.04-0.47-0.06-0.79-0.06c-1.23,0-2.1,0.8-2.33,2.01c-0.04,0.24-0.06,0.52-0.06,0.8v5.46
			h-2.61L147.46,221.51L147.46,221.51z"/>
		<path fill="#D13FFA" d="M164.63,223.28c0,3.86-2.67,5.59-5.3,5.59c-2.91,0-5.18-2.03-5.18-5.41c0-3.45,2.23-5.56,5.35-5.56
			C162.58,217.89,164.63,220.09,164.63,223.28z M156.84,223.39c0,2.03,1,3.56,2.57,3.56c1.48,0,2.52-1.47,2.52-3.6
			c0-1.64-0.72-3.54-2.5-3.54C157.58,219.81,156.84,221.64,156.84,223.39z"/>
	</g>
</g>
</svg>
