<?xml version="1.0" encoding="utf-8"?>
<!DOCTYPE svg PUBLIC "-//W3C//DTD SVG 1.1//EN" "http://www.w3.org/Graphics/SVG/1.1/DTD/svg11.dtd">
<svg version="1.1" id="Layer_1" xmlns="http://www.w3.org/2000/svg" xmlns:xlink="http://www.w3.org/1999/xlink" x="0px" y="0px"
	 viewBox="0 0 256 256" enable-background="new 0 0 256 256" xml:space="preserve">
<filter  id="Drop-Shadow" filterUnits="objectBoundingBox">
	<feGaussianBlur  in="SourceAlpha" result="blur" stdDeviation="1.33"></feGaussianBlur>
	<feOffset  dx="0" dy="1.33" in="blur" result="offsetBlurredAlpha"></feOffset>
	<feMerge>
		<feMergeNode  in="offsetBlurredAlpha"></feMergeNode>
		<feMergeNode  in="SourceGraphic"></feMergeNode>
	</feMerge>
</filter>
<g>
	<g>
		
			<linearGradient id="SVGID_1_" gradientUnits="userSpaceOnUse" x1="225.2129" y1="-91.3521" x2="370.3284" y2="-236.4675" gradientTransform="matrix(1 0 0 -1 -169.5996 -35.9004)">
			<stop  offset="0" style="stop-color:#32297C"/>
			<stop  offset="1" style="stop-color:#282761"/>
		</linearGradient>
		<rect x="55.12" y="55.95" opacity="0.95" fill="url(#SVGID_1_)" enable-background="new    " width="146.11" height="144.12"/>
		<g filter="url(#Drop-Shadow)">
			
				<linearGradient id="SVGID_2_" gradientUnits="userSpaceOnUse" x1="217.7822" y1="-85.4287" x2="377.4181" y2="-241.3909" gradientTransform="matrix(1 0 0 -1 -169.5996 -35.9004)">
				<stop  offset="0" style="stop-color:#95C8FD"/>
				<stop  offset="1" style="stop-color:#73B4F4"/>
			</linearGradient>
			<path fill="url(#SVGID_2_)" d="M48.82,48.88v157.26h158.37V48.88H48.82z M194.6,193.68H61.75v-132H194.6V193.68z"/>
		</g>
		<g>
			<g opacity="0.1">
				<path d="M90.45,95.24c4.27-0.79,10.2-1.38,18.26-1.38c8.74,0,15.15,1.88,19.33,5.43c3.89,3.26,6.41,8.49,6.41,14.71
					c0,6.32-1.94,11.55-5.63,15.1c-4.76,4.84-12.24,7.11-20.69,7.11c-2.23,0-4.27-0.1-5.83-0.4v25.07H90.45V95.24z M102.29,126.24
					c1.46,0.4,3.4,0.5,5.83,0.5c8.94,0,14.38-4.44,14.38-12.24c0-7.4-5.05-11.35-13.31-11.35c-3.3,0-5.63,0.3-6.9,0.59V126.24z"/>
			</g>
			<g>
				
					<linearGradient id="SVGID_3_" gradientUnits="userSpaceOnUse" x1="259.6289" y1="-161.9199" x2="338.4835" y2="-161.9199" gradientTransform="matrix(1 0 0 -1 -169.5996 -35.9004)">
					<stop  offset="0" style="stop-color:#95C8FD"/>
					<stop  offset="1" style="stop-color:#73B4F4"/>
				</linearGradient>
				<path fill="url(#SVGID_3_)" d="M90.45,93.89c4.27-0.79,10.2-1.38,18.26-1.38c8.74,0,15.15,1.88,19.33,5.43
					c3.89,3.26,6.41,8.49,6.41,14.71c0,6.32-1.94,11.55-5.63,15.1c-4.76,4.84-12.24,7.11-20.69,7.11c-2.23,0-4.27-0.1-5.83-0.4
					v25.07H90.45V93.89z M102.29,124.88c1.46,0.4,3.4,0.5,5.83,0.5c8.94,0,14.38-4.44,14.38-12.24c0-7.4-5.05-11.35-13.31-11.35
					c-3.3,0-5.63,0.3-6.9,0.59V124.88z"/>
			</g>
		</g>
		<g>
			<g opacity="0.1">
				<path d="M138.13,149.73c2.72,1.68,7.87,3.45,12.14,3.45c5.25,0,7.57-2.17,7.57-5.33c0-3.26-1.94-4.94-7.77-7.01
					c-9.23-3.26-13.11-8.39-13.02-14.02c0-8.49,6.9-15.1,17.87-15.1c5.25,0,9.81,1.38,12.53,2.86l-2.33,8.59
					c-2.04-1.19-5.83-2.76-10-2.76c-4.27,0-6.61,2.07-6.61,5.03c0,3.06,2.23,4.54,8.26,6.71c8.55,3.16,12.53,7.6,12.63,14.71
					c0,8.69-6.7,15.11-19.23,15.11c-5.73,0-10.88-1.48-14.38-3.46L138.13,149.73z"/>
			</g>
			<g>
				
					<linearGradient id="SVGID_4_" gradientUnits="userSpaceOnUse" x1="259.6279" y1="-171.3945" x2="338.4844" y2="-171.3945" gradientTransform="matrix(1 0 0 -1 -169.5996 -35.9004)">
					<stop  offset="0" style="stop-color:#95C8FD"/>
					<stop  offset="1" style="stop-color:#73B4F4"/>
				</linearGradient>
				<path fill="url(#SVGID_4_)" d="M138.13,148.38c2.72,1.68,7.87,3.45,12.14,3.45c5.25,0,7.57-2.17,7.57-5.33
					c0-3.26-1.94-4.94-7.77-7.01c-9.23-3.26-13.11-8.39-13.02-14.02c0-8.49,6.9-15.1,17.87-15.1c5.25,0,9.81,1.38,12.53,2.86
					l-2.33,8.59c-2.04-1.19-5.83-2.76-10-2.76c-4.27,0-6.61,2.07-6.61,5.03c0,3.06,2.23,4.54,8.26,6.71
					c8.55,3.16,12.53,7.6,12.63,14.71c0,8.69-6.7,15.11-19.23,15.11c-5.73,0-10.88-1.48-14.38-3.46L138.13,148.38z"/>
			</g>
		</g>
	</g>
	<g>
		<path fill="#73B4F4" d="M49.03,214.23c0.95-0.17,2.25-0.3,3.99-0.3c1.91,0,3.29,0.41,4.2,1.19c0.85,0.71,1.4,1.85,1.4,3.21
			c0,1.38-0.42,2.5-1.21,3.28c-1.06,1.05-2.67,1.57-4.52,1.57c-0.49,0-0.91-0.02-1.27-0.11v5.5h-2.59V214.23z M51.62,220.98
			c0.34,0.11,0.74,0.13,1.27,0.13c1.95,0,3.14-0.99,3.14-2.67c0-1.62-1.1-2.46-2.91-2.46c-0.72,0-1.23,0.06-1.51,0.13L51.62,220.98
			L51.62,220.98z"/>
		<path fill="#73B4F4" d="M60.71,213.26h2.61v6.23h0.04c0.32-0.5,0.76-0.91,1.29-1.19c0.53-0.3,1.15-0.47,1.8-0.47
			c1.76,0,3.61,1.19,3.61,4.55v6.19h-2.61v-5.91c0-1.51-0.55-2.67-1.99-2.67c-1.02,0-1.74,0.69-2.04,1.49
			c-0.09,0.24-0.11,0.52-0.11,0.8v6.29h-2.6V213.26z"/>
		<path fill="#73B4F4" d="M82.66,223.22c0,3.86-2.67,5.58-5.3,5.58c-2.91,0-5.18-2.03-5.18-5.41c0-3.45,2.23-5.56,5.35-5.56
			C80.61,217.83,82.66,220.03,82.66,223.22z M74.88,223.33c0,2.03,1,3.56,2.57,3.56c1.48,0,2.52-1.47,2.52-3.6
			c0-1.64-0.72-3.54-2.5-3.54C75.62,219.75,74.88,221.58,74.88,223.33z"/>
		<path fill="#73B4F4" d="M87.79,215.38v2.7h2.48v1.98h-2.48v4.64c0,1.29,0.34,1.94,1.34,1.94c0.47,0,0.72-0.02,1.02-0.11l0.04,2
			c-0.38,0.15-1.08,0.28-1.89,0.28c-0.98,0-1.76-0.32-2.25-0.86c-0.57-0.6-0.83-1.57-0.83-2.95v-4.94h-1.46v-1.98h1.46v-1.96
			L87.79,215.38z"/>
		<path fill="#73B4F4" d="M101.94,223.22c0,3.86-2.67,5.58-5.3,5.58c-2.91,0-5.17-2.03-5.17-5.41c0-3.45,2.23-5.56,5.34-5.56
			C99.88,217.83,101.94,220.03,101.94,223.22z M94.15,223.33c0,2.03,1,3.56,2.57,3.56c1.48,0,2.52-1.47,2.52-3.6
			c0-1.64-0.72-3.54-2.5-3.54C94.9,219.75,94.15,221.58,94.15,223.33z"/>
		<path fill="#73B4F4" d="M103.96,226.11c0.57,0.37,1.7,0.78,2.63,0.78c1.15,0,1.65-0.5,1.65-1.18c0-0.71-0.42-1.06-1.7-1.53
			c-2.02-0.69-2.84-1.81-2.84-3.06c0-1.85,1.51-3.28,3.9-3.28c1.15,0,2.14,0.28,2.76,0.63l-0.53,1.85c-0.42-0.26-1.27-0.6-2.18-0.6
			c-0.93,0-1.44,0.47-1.44,1.12c0,0.67,0.49,0.97,1.8,1.47c1.89,0.67,2.74,1.64,2.76,3.19c0,1.92-1.46,3.3-4.2,3.3
			c-1.25,0-2.37-0.3-3.14-0.73L103.96,226.11z"/>
		<path fill="#73B4F4" d="M112.92,213.26h2.61v6.23h0.04c0.32-0.5,0.76-0.91,1.29-1.19c0.53-0.3,1.15-0.47,1.8-0.47
			c1.76,0,3.61,1.19,3.61,4.55v6.19h-2.61v-5.91c0-1.51-0.55-2.67-1.99-2.67c-1.02,0-1.74,0.69-2.04,1.49
			c-0.08,0.24-0.11,0.52-0.11,0.8v6.29h-2.61L112.92,213.26L112.92,213.26z"/>
		<path fill="#73B4F4" d="M134.86,223.22c0,3.86-2.67,5.58-5.3,5.58c-2.9,0-5.18-2.03-5.18-5.41c0-3.45,2.23-5.56,5.35-5.56
			C132.8,217.83,134.86,220.03,134.86,223.22z M127.08,223.33c0,2.03,1,3.56,2.57,3.56c1.48,0,2.52-1.47,2.52-3.6
			c0-1.64-0.72-3.54-2.5-3.54C127.83,219.75,127.08,221.58,127.08,223.33z"/>
		<path fill="#73B4F4" d="M137,221.56c0-1.38-0.04-2.5-0.09-3.49h2.29l0.13,1.62h0.04c0.76-1.19,1.97-1.85,3.54-1.85
			c2.38,0,4.35,2.07,4.35,5.35c0,3.79-2.36,5.63-4.71,5.63c-1.29,0-2.38-0.56-2.91-1.4h-0.04v5.43H137V221.56z M139.61,224.17
			c0,0.26,0.02,0.49,0.06,0.73c0.27,1.08,1.19,1.85,2.31,1.85c1.66,0,2.63-1.4,2.63-3.47c0-1.85-0.89-3.36-2.57-3.36
			c-1.08,0-2.08,0.8-2.35,1.96c-0.04,0.22-0.09,0.45-0.09,0.67L139.61,224.17L139.61,224.17z"/>
	</g>
</g>
</svg>
